<svg width="265" height="80" viewBox="0 0 265 80" fill="none" xmlns="http://www.w3.org/2000/svg">
<rect width="211" height="54" transform="translate(27 5.5)" fill="white"/>
<path d="M44.756 31.244H53.38V36.228H44.756V31.244ZM45.204 42.5H38.596V22.9H54.528V27.884H45.204V42.5ZM65.9955 42.948C62.9902 42.948 60.6475 42.136 58.9675 40.512C57.2875 38.888 56.4475 36.6107 56.4475 33.68V22.9H63.0555V33.484C63.0555 34.9773 63.3262 36.0413 63.8675 36.676C64.4089 37.292 65.1369 37.6 66.0515 37.6C66.9849 37.6 67.7129 37.292 68.2355 36.676C68.7769 36.0413 69.0475 34.9773 69.0475 33.484V22.9H75.5435V33.68C75.5435 36.6107 74.7035 38.888 73.0235 40.512C71.3435 42.136 69.0009 42.948 65.9955 42.948ZM85.8806 42.948C84.2379 42.948 82.6512 42.7613 81.1206 42.388C79.5899 42.0147 78.3299 41.5293 77.3406 40.932L79.4686 36.116C80.4019 36.6573 81.4379 37.096 82.5766 37.432C83.7339 37.7493 84.8539 37.908 85.9366 37.908C86.5712 37.908 87.0659 37.8707 87.4206 37.796C87.7939 37.7027 88.0646 37.5813 88.2326 37.432C88.4006 37.264 88.4846 37.068 88.4846 36.844C88.4846 36.4893 88.2886 36.2093 87.8966 36.004C87.5046 35.7987 86.9819 35.6307 86.3286 35.5C85.6939 35.3507 84.9939 35.2013 84.2286 35.052C83.4632 34.884 82.6886 34.6693 81.9046 34.408C81.1392 34.1467 80.4299 33.8013 79.7766 33.372C79.1419 32.9427 78.6286 32.3827 78.2366 31.692C77.8446 30.9827 77.6486 30.1053 77.6486 29.06C77.6486 27.8467 77.9846 26.7453 78.6566 25.756C79.3472 24.748 80.3646 23.9453 81.7086 23.348C83.0712 22.7507 84.7606 22.452 86.7766 22.452C88.1019 22.452 89.4086 22.592 90.6966 22.872C91.9846 23.152 93.1419 23.5813 94.1686 24.16L92.1806 28.948C91.2099 28.4627 90.2672 28.0987 89.3526 27.856C88.4566 27.6133 87.5792 27.492 86.7206 27.492C86.0859 27.492 85.5819 27.548 85.2086 27.66C84.8352 27.772 84.5646 27.9213 84.3966 28.108C84.2472 28.2947 84.1726 28.5 84.1726 28.724C84.1726 29.06 84.3686 29.3307 84.7606 29.536C85.1526 29.7227 85.6659 29.8813 86.3006 30.012C86.9539 30.1427 87.6632 30.2827 88.4286 30.432C89.2126 30.5813 89.9872 30.7867 90.7526 31.048C91.5179 31.3093 92.2179 31.6547 92.8526 32.084C93.5059 32.5133 94.0286 33.0733 94.4206 33.764C94.8126 34.4547 95.0086 35.3133 95.0086 36.34C95.0086 37.5347 94.6632 38.636 93.9726 39.644C93.3006 40.6333 92.2926 41.436 90.9486 42.052C89.6046 42.6493 87.9152 42.948 85.8806 42.948ZM96.9749 42.5V22.9H103.583V42.5H96.9749ZM117.04 42.948C115.453 42.948 113.979 42.696 112.616 42.192C111.272 41.688 110.105 40.9787 109.116 40.064C108.127 39.1307 107.352 38.0387 106.792 36.788C106.251 35.5373 105.98 34.1747 105.98 32.7C105.98 31.2067 106.251 29.844 106.792 28.612C107.352 27.3613 108.127 26.2787 109.116 25.364C110.105 24.4307 111.272 23.712 112.616 23.208C113.979 22.704 115.453 22.452 117.04 22.452C118.645 22.452 120.12 22.704 121.464 23.208C122.808 23.712 123.975 24.4307 124.964 25.364C125.953 26.2787 126.719 27.3613 127.26 28.612C127.82 29.844 128.1 31.2067 128.1 32.7C128.1 34.1747 127.82 35.5373 127.26 36.788C126.719 38.0387 125.953 39.1307 124.964 40.064C123.975 40.9787 122.808 41.688 121.464 42.192C120.12 42.696 118.645 42.948 117.04 42.948ZM117.04 37.6C117.656 37.6 118.225 37.488 118.748 37.264C119.289 37.04 119.756 36.7227 120.148 36.312C120.559 35.8827 120.876 35.3693 121.1 34.772C121.324 34.156 121.436 33.4653 121.436 32.7C121.436 31.9347 121.324 31.2533 121.1 30.656C120.876 30.04 120.559 29.5267 120.148 29.116C119.756 28.6867 119.289 28.36 118.748 28.136C118.225 27.912 117.656 27.8 117.04 27.8C116.424 27.8 115.845 27.912 115.304 28.136C114.781 28.36 114.315 28.6867 113.904 29.116C113.512 29.5267 113.204 30.04 112.98 30.656C112.756 31.2533 112.644 31.9347 112.644 32.7C112.644 33.4653 112.756 34.156 112.98 34.772C113.204 35.3693 113.512 35.8827 113.904 36.312C114.315 36.7227 114.781 37.04 115.304 37.264C115.845 37.488 116.424 37.6 117.04 37.6ZM130.498 42.5V22.9H135.93L145.898 34.828H143.378V22.9H149.818V42.5H144.386L134.418 30.572H136.938V42.5H130.498ZM152.666 36.788V32.028H161.066V36.788H152.666ZM169.252 42.5L160.964 22.9H168.076L174.824 39.448H170.596L177.54 22.9H184.036L175.748 42.5H169.252ZM194.696 42.948C193.11 42.948 191.635 42.696 190.272 42.192C188.928 41.688 187.762 40.9787 186.772 40.064C185.783 39.1307 185.008 38.0387 184.448 36.788C183.907 35.5373 183.636 34.1747 183.636 32.7C183.636 31.2067 183.907 29.844 184.448 28.612C185.008 27.3613 185.783 26.2787 186.772 25.364C187.762 24.4307 188.928 23.712 190.272 23.208C191.635 22.704 193.11 22.452 194.696 22.452C196.302 22.452 197.776 22.704 199.12 23.208C200.464 23.712 201.631 24.4307 202.62 25.364C203.61 26.2787 204.375 27.3613 204.916 28.612C205.476 29.844 205.756 31.2067 205.756 32.7C205.756 34.1747 205.476 35.5373 204.916 36.788C204.375 38.0387 203.61 39.1307 202.62 40.064C201.631 40.9787 200.464 41.688 199.12 42.192C197.776 42.696 196.302 42.948 194.696 42.948ZM194.696 37.6C195.312 37.6 195.882 37.488 196.404 37.264C196.946 37.04 197.412 36.7227 197.804 36.312C198.215 35.8827 198.532 35.3693 198.756 34.772C198.98 34.156 199.092 33.4653 199.092 32.7C199.092 31.9347 198.98 31.2533 198.756 30.656C198.532 30.04 198.215 29.5267 197.804 29.116C197.412 28.6867 196.946 28.36 196.404 28.136C195.882 27.912 195.312 27.8 194.696 27.8C194.08 27.8 193.502 27.912 192.96 28.136C192.438 28.36 191.971 28.6867 191.56 29.116C191.168 29.5267 190.86 30.04 190.636 30.656C190.412 31.2533 190.3 31.9347 190.3 32.7C190.3 33.4653 190.412 34.156 190.636 34.772C190.86 35.3693 191.168 35.8827 191.56 36.312C191.971 36.7227 192.438 37.04 192.96 37.264C193.502 37.488 194.08 37.6 194.696 37.6ZM205.624 42.5L214.36 30.292L214.332 34.912L205.876 22.9H213.296L218.224 30.18L215.06 30.208L219.876 22.9H226.988L218.532 34.66V30.068L227.408 42.5H219.848L214.92 34.884L217.972 34.856L213.156 42.5H205.624Z" fill="black"/>
<path d="M155.06 69.55C154.54 69.55 154.047 69.4633 153.58 69.29C153.12 69.11 152.763 68.88 152.51 68.6L152.74 68.22C152.98 68.4667 153.307 68.6767 153.72 68.85C154.14 69.0167 154.583 69.1 155.05 69.1C155.517 69.1 155.897 69.04 156.19 68.92C156.49 68.7933 156.71 68.6267 156.85 68.42C156.997 68.2133 157.07 67.9833 157.07 67.73C157.07 67.43 156.99 67.19 156.83 67.01C156.67 66.83 156.46 66.6867 156.2 66.58C155.94 66.4733 155.657 66.3833 155.35 66.31C155.043 66.2367 154.733 66.16 154.42 66.08C154.107 65.9933 153.82 65.8833 153.56 65.75C153.3 65.6167 153.09 65.4367 152.93 65.21C152.777 64.9767 152.7 64.6767 152.7 64.31C152.7 63.9767 152.787 63.67 152.96 63.39C153.133 63.11 153.403 62.8833 153.77 62.71C154.137 62.5367 154.607 62.45 155.18 62.45C155.567 62.45 155.947 62.5067 156.32 62.62C156.7 62.7333 157.023 62.8867 157.29 63.08L157.1 63.49C156.807 63.29 156.49 63.1433 156.15 63.05C155.817 62.95 155.493 62.9 155.18 62.9C154.733 62.9 154.363 62.9633 154.07 63.09C153.777 63.2167 153.56 63.3867 153.42 63.6C153.28 63.8067 153.21 64.04 153.21 64.3C153.21 64.6 153.287 64.84 153.44 65.02C153.6 65.2 153.81 65.3433 154.07 65.45C154.33 65.5567 154.617 65.6467 154.93 65.72C155.243 65.7933 155.553 65.8733 155.86 65.96C156.167 66.04 156.45 66.1467 156.71 66.28C156.97 66.4133 157.18 66.5933 157.34 66.82C157.5 67.0467 157.58 67.34 157.58 67.7C157.58 68.0267 157.49 68.3333 157.31 68.62C157.13 68.9 156.853 69.1267 156.48 69.3C156.113 69.4667 155.64 69.55 155.06 69.55ZM161.194 69.54C160.694 69.54 160.247 69.4267 159.854 69.2C159.467 68.9733 159.157 68.66 158.924 68.26C158.697 67.86 158.584 67.4033 158.584 66.89C158.584 66.37 158.697 65.9133 158.924 65.52C159.157 65.12 159.467 64.8067 159.854 64.58C160.247 64.3533 160.694 64.24 161.194 64.24C161.694 64.24 162.14 64.3533 162.534 64.58C162.927 64.8067 163.237 65.12 163.464 65.52C163.69 65.9133 163.804 66.37 163.804 66.89C163.804 67.4033 163.69 67.86 163.464 68.26C163.237 68.66 162.927 68.9733 162.534 69.2C162.14 69.4267 161.694 69.54 161.194 69.54ZM161.194 69.09C161.594 69.09 161.954 69 162.274 68.82C162.594 68.6333 162.844 68.3733 163.024 68.04C163.204 67.7067 163.294 67.3233 163.294 66.89C163.294 66.45 163.204 66.0667 163.024 65.74C162.844 65.4067 162.594 65.15 162.274 64.97C161.954 64.7833 161.594 64.69 161.194 64.69C160.794 64.69 160.434 64.7833 160.114 64.97C159.8 65.15 159.55 65.4067 159.364 65.74C159.184 66.0667 159.094 66.45 159.094 66.89C159.094 67.3233 159.184 67.7067 159.364 68.04C159.55 68.3733 159.8 68.6333 160.114 68.82C160.434 69 160.794 69.09 161.194 69.09ZM167.475 69.54C167.028 69.54 166.642 69.46 166.315 69.3C165.988 69.1333 165.735 68.8867 165.555 68.56C165.382 68.2267 165.295 67.8167 165.295 67.33V64.28H165.795V67.29C165.795 67.8767 165.945 68.3233 166.245 68.63C166.545 68.9367 166.968 69.09 167.515 69.09C167.908 69.09 168.248 69.0067 168.535 68.84C168.822 68.6733 169.042 68.44 169.195 68.14C169.348 67.8333 169.425 67.4733 169.425 67.06V64.28H169.925V69.5H169.445V68.05L169.515 68.22C169.362 68.6267 169.105 68.95 168.745 69.19C168.392 69.4233 167.968 69.54 167.475 69.54ZM174.594 64.24C175.021 64.24 175.391 64.3233 175.704 64.49C176.024 64.65 176.271 64.8967 176.444 65.23C176.624 65.5567 176.714 65.9633 176.714 66.45V69.5H176.214V66.49C176.214 65.9033 176.064 65.4567 175.764 65.15C175.471 64.8433 175.058 64.69 174.524 64.69C174.118 64.69 173.764 64.7733 173.464 64.94C173.164 65.1067 172.934 65.34 172.774 65.64C172.621 65.94 172.544 66.3 172.544 66.72V69.5H172.044V64.28H172.524V65.73L172.454 65.57C172.614 65.1567 172.878 64.8333 173.244 64.6C173.611 64.36 174.061 64.24 174.594 64.24ZM180.783 69.54C180.296 69.54 179.856 69.43 179.463 69.21C179.076 68.9833 178.77 68.67 178.543 68.27C178.316 67.87 178.203 67.41 178.203 66.89C178.203 66.3633 178.316 65.9033 178.543 65.51C178.77 65.11 179.076 64.8 179.463 64.58C179.856 64.3533 180.296 64.24 180.783 64.24C181.243 64.24 181.656 64.3467 182.023 64.56C182.396 64.7733 182.69 65.0767 182.903 65.47C183.123 65.8633 183.233 66.3367 183.233 66.89C183.233 67.43 183.126 67.9 182.913 68.3C182.7 68.7 182.406 69.0067 182.033 69.22C181.666 69.4333 181.25 69.54 180.783 69.54ZM180.813 69.09C181.213 69.09 181.57 69 181.883 68.82C182.203 68.6333 182.453 68.3733 182.633 68.04C182.82 67.7067 182.913 67.3233 182.913 66.89C182.913 66.45 182.82 66.0667 182.633 65.74C182.453 65.4067 182.203 65.15 181.883 64.97C181.57 64.7833 181.213 64.69 180.813 64.69C180.413 64.69 180.053 64.7833 179.733 64.97C179.42 65.15 179.17 65.4067 178.983 65.74C178.803 66.0667 178.713 66.45 178.713 66.89C178.713 67.3233 178.803 67.7067 178.983 68.04C179.17 68.3733 179.42 68.6333 179.733 68.82C180.053 69 180.413 69.09 180.813 69.09ZM182.923 69.5V67.79L183.013 66.88L182.913 65.97V62.08H183.413V69.5H182.923ZM186.841 69.54C186.408 69.54 186.001 69.4767 185.621 69.35C185.248 69.2233 184.958 69.0633 184.751 68.87L184.981 68.47C185.181 68.6433 185.448 68.7933 185.781 68.92C186.114 69.04 186.474 69.1 186.861 69.1C187.408 69.1 187.801 69.01 188.041 68.83C188.281 68.65 188.401 68.4133 188.401 68.12C188.401 67.9067 188.338 67.74 188.211 67.62C188.091 67.4933 187.928 67.3967 187.721 67.33C187.514 67.2633 187.288 67.21 187.041 67.17C186.794 67.1233 186.548 67.0733 186.301 67.02C186.054 66.9667 185.828 66.89 185.621 66.79C185.414 66.69 185.248 66.5533 185.121 66.38C185.001 66.2 184.941 65.9633 184.941 65.67C184.941 65.4033 185.014 65.1633 185.161 64.95C185.308 64.7367 185.528 64.5667 185.821 64.44C186.114 64.3067 186.481 64.24 186.921 64.24C187.248 64.24 187.574 64.2867 187.901 64.38C188.234 64.4733 188.504 64.5967 188.711 64.75L188.481 65.15C188.261 64.9833 188.014 64.8633 187.741 64.79C187.468 64.7167 187.191 64.68 186.911 64.68C186.404 64.68 186.031 64.7733 185.791 64.96C185.558 65.1467 185.441 65.38 185.441 65.66C185.441 65.88 185.501 66.0567 185.621 66.19C185.748 66.3167 185.914 66.4167 186.121 66.49C186.328 66.5567 186.554 66.6133 186.801 66.66C187.048 66.7 187.294 66.7467 187.541 66.8C187.788 66.8533 188.014 66.93 188.221 67.03C188.428 67.1233 188.591 67.2567 188.711 67.43C188.838 67.5967 188.901 67.8233 188.901 68.11C188.901 68.3967 188.821 68.6467 188.661 68.86C188.508 69.0733 188.278 69.24 187.971 69.36C187.664 69.48 187.288 69.54 186.841 69.54ZM193.025 69.5V62.5H195.795C196.535 62.5 197.185 62.65 197.745 62.95C198.305 63.25 198.738 63.6633 199.045 64.19C199.358 64.7167 199.515 65.32 199.515 66C199.515 66.68 199.358 67.2833 199.045 67.81C198.738 68.3367 198.305 68.75 197.745 69.05C197.185 69.35 196.535 69.5 195.795 69.5H193.025ZM193.535 69.04H195.755C196.415 69.04 196.988 68.91 197.475 68.65C197.961 68.39 198.338 68.0333 198.605 67.58C198.871 67.12 199.005 66.5933 199.005 66C199.005 65.4067 198.871 64.8833 198.605 64.43C198.338 63.97 197.961 63.61 197.475 63.35C196.988 63.09 196.415 62.96 195.755 62.96H193.535V69.04ZM201.126 69.5V64.28H201.626V69.5H201.126ZM201.376 63.01C201.263 63.01 201.166 62.97 201.086 62.89C201.006 62.81 200.966 62.7167 200.966 62.61C200.966 62.4967 201.006 62.4 201.086 62.32C201.166 62.24 201.263 62.2 201.376 62.2C201.496 62.2 201.593 62.24 201.666 62.32C201.746 62.3933 201.786 62.4867 201.786 62.6C201.786 62.7133 201.746 62.81 201.666 62.89C201.593 62.97 201.496 63.01 201.376 63.01ZM203.834 69.5V63.48C203.834 63.0467 203.957 62.7 204.204 62.44C204.457 62.1733 204.817 62.04 205.284 62.04C205.477 62.04 205.667 62.07 205.854 62.13C206.04 62.1833 206.194 62.2667 206.314 62.38L206.114 62.76C206.014 62.66 205.894 62.5867 205.754 62.54C205.614 62.4933 205.464 62.47 205.304 62.47C204.984 62.47 204.74 62.56 204.574 62.74C204.407 62.9133 204.324 63.1733 204.324 63.52V64.4L204.334 64.64V69.5H203.834ZM202.874 64.71V64.28H205.994V64.71H202.874ZM207.144 69.5V63.48C207.144 63.0467 207.268 62.7 207.514 62.44C207.768 62.1733 208.128 62.04 208.594 62.04C208.788 62.04 208.978 62.07 209.164 62.13C209.351 62.1833 209.504 62.2667 209.624 62.38L209.424 62.76C209.324 62.66 209.204 62.5867 209.064 62.54C208.924 62.4933 208.774 62.47 208.614 62.47C208.294 62.47 208.051 62.56 207.884 62.74C207.718 62.9133 207.634 63.1733 207.634 63.52V64.4L207.644 64.64V69.5H207.144ZM206.184 64.71V64.28H209.304V64.71H206.184ZM212.358 69.54C211.831 69.54 211.364 69.4267 210.958 69.2C210.558 68.9733 210.241 68.66 210.008 68.26C209.781 67.86 209.668 67.4033 209.668 66.89C209.668 66.37 209.774 65.9133 209.988 65.52C210.208 65.12 210.508 64.8067 210.888 64.58C211.268 64.3533 211.694 64.24 212.168 64.24C212.641 64.24 213.064 64.35 213.438 64.57C213.818 64.79 214.114 65.1 214.328 65.5C214.548 65.8933 214.658 66.35 214.658 66.87C214.658 66.89 214.654 66.9133 214.648 66.94C214.648 66.96 214.648 66.9833 214.648 67.01H210.038V66.62H214.378L214.178 66.81C214.184 66.4033 214.098 66.04 213.918 65.72C213.744 65.3933 213.508 65.14 213.208 64.96C212.908 64.7733 212.561 64.68 212.168 64.68C211.781 64.68 211.434 64.7733 211.128 64.96C210.828 65.14 210.591 65.3933 210.418 65.72C210.244 66.04 210.158 66.4067 210.158 66.82V66.91C210.158 67.3367 210.251 67.7167 210.438 68.05C210.631 68.3767 210.894 68.6333 211.228 68.82C211.561 69 211.941 69.09 212.368 69.09C212.701 69.09 213.011 69.03 213.298 68.91C213.591 68.79 213.838 68.6067 214.038 68.36L214.328 68.69C214.101 68.97 213.814 69.1833 213.468 69.33C213.128 69.47 212.758 69.54 212.358 69.54ZM216.205 69.5V64.28H216.685V65.71L216.635 65.55C216.781 65.13 217.028 64.8067 217.375 64.58C217.721 64.3533 218.155 64.24 218.675 64.24V64.73C218.655 64.73 218.635 64.73 218.615 64.73C218.595 64.7233 218.575 64.72 218.555 64.72C217.975 64.72 217.521 64.9033 217.195 65.27C216.868 65.63 216.705 66.1333 216.705 66.78V69.5H216.205ZM222.123 69.54C221.597 69.54 221.13 69.4267 220.723 69.2C220.323 68.9733 220.007 68.66 219.773 68.26C219.547 67.86 219.433 67.4033 219.433 66.89C219.433 66.37 219.54 65.9133 219.753 65.52C219.973 65.12 220.273 64.8067 220.653 64.58C221.033 64.3533 221.46 64.24 221.933 64.24C222.407 64.24 222.83 64.35 223.203 64.57C223.583 64.79 223.88 65.1 224.093 65.5C224.313 65.8933 224.423 66.35 224.423 66.87C224.423 66.89 224.42 66.9133 224.413 66.94C224.413 66.96 224.413 66.9833 224.413 67.01H219.803V66.62H224.143L223.943 66.81C223.95 66.4033 223.863 66.04 223.683 65.72C223.51 65.3933 223.273 65.14 222.973 64.96C222.673 64.7733 222.327 64.68 221.933 64.68C221.547 64.68 221.2 64.7733 220.893 64.96C220.593 65.14 220.357 65.3933 220.183 65.72C220.01 66.04 219.923 66.4067 219.923 66.82V66.91C219.923 67.3367 220.017 67.7167 220.203 68.05C220.397 68.3767 220.66 68.6333 220.993 68.82C221.327 69 221.707 69.09 222.133 69.09C222.467 69.09 222.777 69.03 223.063 68.91C223.357 68.79 223.603 68.6067 223.803 68.36L224.093 68.69C223.867 68.97 223.58 69.1833 223.233 69.33C222.893 69.47 222.523 69.54 222.123 69.54ZM228.52 64.24C228.947 64.24 229.317 64.3233 229.63 64.49C229.95 64.65 230.197 64.8967 230.37 65.23C230.55 65.5567 230.64 65.9633 230.64 66.45V69.5H230.14V66.49C230.14 65.9033 229.99 65.4567 229.69 65.15C229.397 64.8433 228.983 64.69 228.45 64.69C228.043 64.69 227.69 64.7733 227.39 64.94C227.09 65.1067 226.86 65.34 226.7 65.64C226.547 65.94 226.47 66.3 226.47 66.72V69.5H225.97V64.28H226.45V65.73L226.38 65.57C226.54 65.1567 226.803 64.8333 227.17 64.6C227.537 64.36 227.987 64.24 228.52 64.24ZM234.219 69.54C233.759 69.54 233.405 69.4133 233.159 69.16C232.919 68.9067 232.799 68.56 232.799 68.12V63.14H233.299V68.07C233.299 68.4033 233.382 68.66 233.549 68.84C233.715 69.02 233.955 69.11 234.269 69.11C234.595 69.11 234.865 69.0133 235.079 68.82L235.289 69.17C235.155 69.2967 234.992 69.39 234.799 69.45C234.612 69.51 234.419 69.54 234.219 69.54ZM231.839 64.71V64.28H234.959V64.71H231.839Z" fill="white"/>
</svg>
