<svg width="196" height="58" viewBox="0 0 196 58" fill="none" xmlns="http://www.w3.org/2000/svg">
<rect width="170" height="41" transform="translate(10.8579 2.99365)" fill="white"/>
<path d="M26.9519 22.1497H33.7279V26.0657H26.9519V22.1497ZM27.3039 30.9937H22.1119V15.5937H34.6299V19.5097H27.3039V30.9937ZM43.6401 31.3457C41.2788 31.3457 39.4381 30.7077 38.1181 29.4317C36.7981 28.1557 36.1381 26.3663 36.1381 24.0637V15.5937H41.3301V23.9097C41.3301 25.083 41.5428 25.919 41.9681 26.4177C42.3934 26.9017 42.9654 27.1437 43.6841 27.1437C44.4174 27.1437 44.9894 26.9017 45.4001 26.4177C45.8254 25.919 46.0381 25.083 46.0381 23.9097V15.5937H51.1421V24.0637C51.1421 26.3663 50.4821 28.1557 49.1621 29.4317C47.8421 30.7077 46.0014 31.3457 43.6401 31.3457ZM59.2641 31.3457C57.9734 31.3457 56.7267 31.199 55.5241 30.9057C54.3214 30.6123 53.3314 30.231 52.5541 29.7617L54.2261 25.9777C54.9594 26.403 55.7734 26.7477 56.6681 27.0117C57.5774 27.261 58.4574 27.3857 59.3081 27.3857C59.8067 27.3857 60.1954 27.3563 60.4741 27.2977C60.7674 27.2243 60.9801 27.129 61.1121 27.0117C61.2441 26.8797 61.3101 26.7257 61.3101 26.5497C61.3101 26.271 61.1561 26.051 60.8481 25.8897C60.5401 25.7283 60.1294 25.5963 59.6161 25.4937C59.1174 25.3763 58.5674 25.259 57.9661 25.1417C57.3647 25.0097 56.7561 24.841 56.1401 24.6357C55.5387 24.4303 54.9814 24.159 54.4681 23.8217C53.9694 23.4843 53.5661 23.0443 53.2581 22.5017C52.9501 21.9443 52.7961 21.255 52.7961 20.4337C52.7961 19.4803 53.0601 18.615 53.5881 17.8377C54.1307 17.0457 54.9301 16.415 55.9861 15.9457C57.0567 15.4763 58.3841 15.2417 59.9681 15.2417C61.0094 15.2417 62.0361 15.3517 63.0481 15.5717C64.0601 15.7917 64.9694 16.129 65.7761 16.5837L64.2141 20.3457C63.4514 19.9643 62.7107 19.6783 61.9921 19.4877C61.2881 19.297 60.5987 19.2017 59.9241 19.2017C59.4254 19.2017 59.0294 19.2457 58.7361 19.3337C58.4427 19.4217 58.2301 19.539 58.0981 19.6857C57.9807 19.8323 57.9221 19.9937 57.9221 20.1697C57.9221 20.4337 58.0761 20.6463 58.3841 20.8077C58.6921 20.9543 59.0954 21.079 59.5941 21.1817C60.1074 21.2843 60.6647 21.3943 61.2661 21.5117C61.8821 21.629 62.4907 21.7903 63.0921 21.9957C63.6934 22.201 64.2434 22.4723 64.7421 22.8097C65.2554 23.147 65.6661 23.587 65.9741 24.1297C66.2821 24.6723 66.4361 25.347 66.4361 26.1537C66.4361 27.0923 66.1647 27.9577 65.6221 28.7497C65.0941 29.527 64.3021 30.1577 63.2461 30.6417C62.1901 31.111 60.8627 31.3457 59.2641 31.3457ZM67.9811 30.9937V15.5937H73.1731V30.9937H67.9811ZM83.7465 31.3457C82.4998 31.3457 81.3411 31.1477 80.2705 30.7517C79.2145 30.3557 78.2978 29.7983 77.5205 29.0797C76.7431 28.3463 76.1345 27.4883 75.6945 26.5057C75.2691 25.523 75.0565 24.4523 75.0565 23.2937C75.0565 22.1203 75.2691 21.0497 75.6945 20.0817C76.1345 19.099 76.7431 18.2483 77.5205 17.5297C78.2978 16.7963 79.2145 16.2317 80.2705 15.8357C81.3411 15.4397 82.4998 15.2417 83.7465 15.2417C85.0078 15.2417 86.1665 15.4397 87.2225 15.8357C88.2785 16.2317 89.1951 16.7963 89.9725 17.5297C90.7498 18.2483 91.3511 19.099 91.7765 20.0817C92.2165 21.0497 92.4365 22.1203 92.4365 23.2937C92.4365 24.4523 92.2165 25.523 91.7765 26.5057C91.3511 27.4883 90.7498 28.3463 89.9725 29.0797C89.1951 29.7983 88.2785 30.3557 87.2225 30.7517C86.1665 31.1477 85.0078 31.3457 83.7465 31.3457ZM83.7465 27.1437C84.2305 27.1437 84.6778 27.0557 85.0885 26.8797C85.5138 26.7037 85.8805 26.4543 86.1885 26.1317C86.5111 25.7943 86.7605 25.391 86.9365 24.9217C87.1125 24.4377 87.2005 23.895 87.2005 23.2937C87.2005 22.6923 87.1125 22.157 86.9365 21.6877C86.7605 21.2037 86.5111 20.8003 86.1885 20.4777C85.8805 20.1403 85.5138 19.8837 85.0885 19.7077C84.6778 19.5317 84.2305 19.4437 83.7465 19.4437C83.2625 19.4437 82.8078 19.5317 82.3825 19.7077C81.9718 19.8837 81.6051 20.1403 81.2825 20.4777C80.9745 20.8003 80.7325 21.2037 80.5565 21.6877C80.3805 22.157 80.2925 22.6923 80.2925 23.2937C80.2925 23.895 80.3805 24.4377 80.5565 24.9217C80.7325 25.391 80.9745 25.7943 81.2825 26.1317C81.6051 26.4543 81.9718 26.7037 82.3825 26.8797C82.8078 27.0557 83.2625 27.1437 83.7465 27.1437ZM94.3209 30.9937V15.5937H98.5889L106.421 24.9657H104.441V15.5937H109.501V30.9937H105.233L97.4009 21.6217H99.3809V30.9937H94.3209ZM111.739 26.5057V22.7657H118.339V26.5057H111.739ZM124.77 30.9937L118.258 15.5937H123.846L129.148 28.5957H125.826L131.282 15.5937H136.386L129.874 30.9937H124.77ZM144.762 31.3457C143.515 31.3457 142.357 31.1477 141.286 30.7517C140.23 30.3557 139.313 29.7983 138.536 29.0797C137.759 28.3463 137.15 27.4883 136.71 26.5057C136.285 25.523 136.072 24.4523 136.072 23.2937C136.072 22.1203 136.285 21.0497 136.71 20.0817C137.15 19.099 137.759 18.2483 138.536 17.5297C139.313 16.7963 140.23 16.2317 141.286 15.8357C142.357 15.4397 143.515 15.2417 144.762 15.2417C146.023 15.2417 147.182 15.4397 148.238 15.8357C149.294 16.2317 150.211 16.7963 150.988 17.5297C151.765 18.2483 152.367 19.099 152.792 20.0817C153.232 21.0497 153.452 22.1203 153.452 23.2937C153.452 24.4523 153.232 25.523 152.792 26.5057C152.367 27.4883 151.765 28.3463 150.988 29.0797C150.211 29.7983 149.294 30.3557 148.238 30.7517C147.182 31.1477 146.023 31.3457 144.762 31.3457ZM144.762 27.1437C145.246 27.1437 145.693 27.0557 146.104 26.8797C146.529 26.7037 146.896 26.4543 147.204 26.1317C147.527 25.7943 147.776 25.391 147.952 24.9217C148.128 24.4377 148.216 23.895 148.216 23.2937C148.216 22.6923 148.128 22.157 147.952 21.6877C147.776 21.2037 147.527 20.8003 147.204 20.4777C146.896 20.1403 146.529 19.8837 146.104 19.7077C145.693 19.5317 145.246 19.4437 144.762 19.4437C144.278 19.4437 143.823 19.5317 143.398 19.7077C142.987 19.8837 142.621 20.1403 142.298 20.4777C141.99 20.8003 141.748 21.2037 141.572 21.6877C141.396 22.157 141.308 22.6923 141.308 23.2937C141.308 23.895 141.396 24.4377 141.572 24.9217C141.748 25.391 141.99 25.7943 142.298 26.1317C142.621 26.4543 142.987 26.7037 143.398 26.8797C143.823 27.0557 144.278 27.1437 144.762 27.1437ZM153.348 30.9937L160.212 21.4017L160.19 25.0317L153.546 15.5937H159.376L163.248 21.3137L160.762 21.3357L164.546 15.5937H170.134L163.49 24.8337V21.2257L170.464 30.9937H164.524L160.652 25.0097L163.05 24.9877L159.266 30.9937H153.348Z" fill="black"/>
<path d="M94.06 54.05C93.54 54.05 93.0467 53.9633 92.58 53.79C92.12 53.61 91.7633 53.38 91.51 53.1L91.74 52.72C91.98 52.9667 92.3067 53.1767 92.72 53.35C93.14 53.5167 93.5833 53.6 94.05 53.6C94.5167 53.6 94.8967 53.54 95.19 53.42C95.49 53.2933 95.71 53.1267 95.85 52.92C95.9967 52.7133 96.07 52.4833 96.07 52.23C96.07 51.93 95.99 51.69 95.83 51.51C95.67 51.33 95.46 51.1867 95.2 51.08C94.94 50.9733 94.6567 50.8833 94.35 50.81C94.0433 50.7367 93.7333 50.66 93.42 50.58C93.1067 50.4933 92.82 50.3833 92.56 50.25C92.3 50.1167 92.09 49.9367 91.93 49.71C91.7767 49.4767 91.7 49.1767 91.7 48.81C91.7 48.4767 91.7867 48.17 91.96 47.89C92.1333 47.61 92.4033 47.3833 92.77 47.21C93.1367 47.0367 93.6067 46.95 94.18 46.95C94.5667 46.95 94.9467 47.0067 95.32 47.12C95.7 47.2333 96.0233 47.3867 96.29 47.58L96.1 47.99C95.8067 47.79 95.49 47.6433 95.15 47.55C94.8167 47.45 94.4933 47.4 94.18 47.4C93.7333 47.4 93.3633 47.4633 93.07 47.59C92.7767 47.7167 92.56 47.8867 92.42 48.1C92.28 48.3067 92.21 48.54 92.21 48.8C92.21 49.1 92.2867 49.34 92.44 49.52C92.6 49.7 92.81 49.8433 93.07 49.95C93.33 50.0567 93.6167 50.1467 93.93 50.22C94.2433 50.2933 94.5533 50.3733 94.86 50.46C95.1667 50.54 95.45 50.6467 95.71 50.78C95.97 50.9133 96.18 51.0933 96.34 51.32C96.5 51.5467 96.58 51.84 96.58 52.2C96.58 52.5267 96.49 52.8333 96.31 53.12C96.13 53.4 95.8533 53.6267 95.48 53.8C95.1133 53.9667 94.64 54.05 94.06 54.05ZM100.194 54.04C99.6938 54.04 99.2471 53.9267 98.8538 53.7C98.4671 53.4733 98.1571 53.16 97.9238 52.76C97.6971 52.36 97.5838 51.9033 97.5838 51.39C97.5838 50.87 97.6971 50.4133 97.9238 50.02C98.1571 49.62 98.4671 49.3067 98.8538 49.08C99.2471 48.8533 99.6938 48.74 100.194 48.74C100.694 48.74 101.14 48.8533 101.534 49.08C101.927 49.3067 102.237 49.62 102.464 50.02C102.69 50.4133 102.804 50.87 102.804 51.39C102.804 51.9033 102.69 52.36 102.464 52.76C102.237 53.16 101.927 53.4733 101.534 53.7C101.14 53.9267 100.694 54.04 100.194 54.04ZM100.194 53.59C100.594 53.59 100.954 53.5 101.274 53.32C101.594 53.1333 101.844 52.8733 102.024 52.54C102.204 52.2067 102.294 51.8233 102.294 51.39C102.294 50.95 102.204 50.5667 102.024 50.24C101.844 49.9067 101.594 49.65 101.274 49.47C100.954 49.2833 100.594 49.19 100.194 49.19C99.7938 49.19 99.4338 49.2833 99.1138 49.47C98.8004 49.65 98.5504 49.9067 98.3638 50.24C98.1838 50.5667 98.0938 50.95 98.0938 51.39C98.0938 51.8233 98.1838 52.2067 98.3638 52.54C98.5504 52.8733 98.8004 53.1333 99.1138 53.32C99.4338 53.5 99.7938 53.59 100.194 53.59ZM106.475 54.04C106.028 54.04 105.642 53.96 105.315 53.8C104.988 53.6333 104.735 53.3867 104.555 53.06C104.382 52.7267 104.295 52.3167 104.295 51.83V48.78H104.795V51.79C104.795 52.3767 104.945 52.8233 105.245 53.13C105.545 53.4367 105.968 53.59 106.515 53.59C106.908 53.59 107.248 53.5067 107.535 53.34C107.822 53.1733 108.042 52.94 108.195 52.64C108.348 52.3333 108.425 51.9733 108.425 51.56V48.78H108.925V54H108.445V52.55L108.515 52.72C108.362 53.1267 108.105 53.45 107.745 53.69C107.392 53.9233 106.968 54.04 106.475 54.04ZM113.594 48.74C114.021 48.74 114.391 48.8233 114.704 48.99C115.024 49.15 115.271 49.3967 115.444 49.73C115.624 50.0567 115.714 50.4633 115.714 50.95V54H115.214V50.99C115.214 50.4033 115.064 49.9567 114.764 49.65C114.471 49.3433 114.058 49.19 113.524 49.19C113.118 49.19 112.764 49.2733 112.464 49.44C112.164 49.6067 111.934 49.84 111.774 50.14C111.621 50.44 111.544 50.8 111.544 51.22V54H111.044V48.78H111.524V50.23L111.454 50.07C111.614 49.6567 111.878 49.3333 112.244 49.1C112.611 48.86 113.061 48.74 113.594 48.74ZM119.783 54.04C119.296 54.04 118.856 53.93 118.463 53.71C118.076 53.4833 117.77 53.17 117.543 52.77C117.316 52.37 117.203 51.91 117.203 51.39C117.203 50.8633 117.316 50.4033 117.543 50.01C117.77 49.61 118.076 49.3 118.463 49.08C118.856 48.8533 119.296 48.74 119.783 48.74C120.243 48.74 120.656 48.8467 121.023 49.06C121.396 49.2733 121.69 49.5767 121.903 49.97C122.123 50.3633 122.233 50.8367 122.233 51.39C122.233 51.93 122.126 52.4 121.913 52.8C121.7 53.2 121.406 53.5067 121.033 53.72C120.666 53.9333 120.25 54.04 119.783 54.04ZM119.813 53.59C120.213 53.59 120.57 53.5 120.883 53.32C121.203 53.1333 121.453 52.8733 121.633 52.54C121.82 52.2067 121.913 51.8233 121.913 51.39C121.913 50.95 121.82 50.5667 121.633 50.24C121.453 49.9067 121.203 49.65 120.883 49.47C120.57 49.2833 120.213 49.19 119.813 49.19C119.413 49.19 119.053 49.2833 118.733 49.47C118.42 49.65 118.17 49.9067 117.983 50.24C117.803 50.5667 117.713 50.95 117.713 51.39C117.713 51.8233 117.803 52.2067 117.983 52.54C118.17 52.8733 118.42 53.1333 118.733 53.32C119.053 53.5 119.413 53.59 119.813 53.59ZM121.923 54V52.29L122.013 51.38L121.913 50.47V46.58H122.413V54H121.923ZM125.841 54.04C125.408 54.04 125.001 53.9767 124.621 53.85C124.248 53.7233 123.958 53.5633 123.751 53.37L123.981 52.97C124.181 53.1433 124.448 53.2933 124.781 53.42C125.114 53.54 125.474 53.6 125.861 53.6C126.408 53.6 126.801 53.51 127.041 53.33C127.281 53.15 127.401 52.9133 127.401 52.62C127.401 52.4067 127.338 52.24 127.211 52.12C127.091 51.9933 126.928 51.8967 126.721 51.83C126.514 51.7633 126.288 51.71 126.041 51.67C125.794 51.6233 125.548 51.5733 125.301 51.52C125.054 51.4667 124.828 51.39 124.621 51.29C124.414 51.19 124.248 51.0533 124.121 50.88C124.001 50.7 123.941 50.4633 123.941 50.17C123.941 49.9033 124.014 49.6633 124.161 49.45C124.308 49.2367 124.528 49.0667 124.821 48.94C125.114 48.8067 125.481 48.74 125.921 48.74C126.248 48.74 126.574 48.7867 126.901 48.88C127.234 48.9733 127.504 49.0967 127.711 49.25L127.481 49.65C127.261 49.4833 127.014 49.3633 126.741 49.29C126.468 49.2167 126.191 49.18 125.911 49.18C125.404 49.18 125.031 49.2733 124.791 49.46C124.558 49.6467 124.441 49.88 124.441 50.16C124.441 50.38 124.501 50.5567 124.621 50.69C124.748 50.8167 124.914 50.9167 125.121 50.99C125.328 51.0567 125.554 51.1133 125.801 51.16C126.048 51.2 126.294 51.2467 126.541 51.3C126.788 51.3533 127.014 51.43 127.221 51.53C127.428 51.6233 127.591 51.7567 127.711 51.93C127.838 52.0967 127.901 52.3233 127.901 52.61C127.901 52.8967 127.821 53.1467 127.661 53.36C127.508 53.5733 127.278 53.74 126.971 53.86C126.664 53.98 126.288 54.04 125.841 54.04ZM132.025 54V47H134.795C135.535 47 136.185 47.15 136.745 47.45C137.305 47.75 137.738 48.1633 138.045 48.69C138.358 49.2167 138.515 49.82 138.515 50.5C138.515 51.18 138.358 51.7833 138.045 52.31C137.738 52.8367 137.305 53.25 136.745 53.55C136.185 53.85 135.535 54 134.795 54H132.025ZM132.535 53.54H134.755C135.415 53.54 135.988 53.41 136.475 53.15C136.961 52.89 137.338 52.5333 137.605 52.08C137.871 51.62 138.005 51.0933 138.005 50.5C138.005 49.9067 137.871 49.3833 137.605 48.93C137.338 48.47 136.961 48.11 136.475 47.85C135.988 47.59 135.415 47.46 134.755 47.46H132.535V53.54ZM140.126 54V48.78H140.626V54H140.126ZM140.376 47.51C140.263 47.51 140.166 47.47 140.086 47.39C140.006 47.31 139.966 47.2167 139.966 47.11C139.966 46.9967 140.006 46.9 140.086 46.82C140.166 46.74 140.263 46.7 140.376 46.7C140.496 46.7 140.593 46.74 140.666 46.82C140.746 46.8933 140.786 46.9867 140.786 47.1C140.786 47.2133 140.746 47.31 140.666 47.39C140.593 47.47 140.496 47.51 140.376 47.51ZM142.834 54V47.98C142.834 47.5467 142.957 47.2 143.204 46.94C143.457 46.6733 143.817 46.54 144.284 46.54C144.477 46.54 144.667 46.57 144.854 46.63C145.04 46.6833 145.194 46.7667 145.314 46.88L145.114 47.26C145.014 47.16 144.894 47.0867 144.754 47.04C144.614 46.9933 144.464 46.97 144.304 46.97C143.984 46.97 143.74 47.06 143.574 47.24C143.407 47.4133 143.324 47.6733 143.324 48.02V48.9L143.334 49.14V54H142.834ZM141.874 49.21V48.78H144.994V49.21H141.874ZM146.144 54V47.98C146.144 47.5467 146.268 47.2 146.514 46.94C146.768 46.6733 147.128 46.54 147.594 46.54C147.788 46.54 147.978 46.57 148.164 46.63C148.351 46.6833 148.504 46.7667 148.624 46.88L148.424 47.26C148.324 47.16 148.204 47.0867 148.064 47.04C147.924 46.9933 147.774 46.97 147.614 46.97C147.294 46.97 147.051 47.06 146.884 47.24C146.718 47.4133 146.634 47.6733 146.634 48.02V48.9L146.644 49.14V54H146.144ZM145.184 49.21V48.78H148.304V49.21H145.184ZM151.358 54.04C150.831 54.04 150.364 53.9267 149.958 53.7C149.558 53.4733 149.241 53.16 149.008 52.76C148.781 52.36 148.668 51.9033 148.668 51.39C148.668 50.87 148.774 50.4133 148.988 50.02C149.208 49.62 149.508 49.3067 149.888 49.08C150.268 48.8533 150.694 48.74 151.168 48.74C151.641 48.74 152.064 48.85 152.438 49.07C152.818 49.29 153.114 49.6 153.328 50C153.548 50.3933 153.658 50.85 153.658 51.37C153.658 51.39 153.654 51.4133 153.648 51.44C153.648 51.46 153.648 51.4833 153.648 51.51H149.038V51.12H153.378L153.178 51.31C153.184 50.9033 153.098 50.54 152.918 50.22C152.744 49.8933 152.508 49.64 152.208 49.46C151.908 49.2733 151.561 49.18 151.168 49.18C150.781 49.18 150.434 49.2733 150.128 49.46C149.828 49.64 149.591 49.8933 149.418 50.22C149.244 50.54 149.158 50.9067 149.158 51.32V51.41C149.158 51.8367 149.251 52.2167 149.438 52.55C149.631 52.8767 149.894 53.1333 150.228 53.32C150.561 53.5 150.941 53.59 151.368 53.59C151.701 53.59 152.011 53.53 152.298 53.41C152.591 53.29 152.838 53.1067 153.038 52.86L153.328 53.19C153.101 53.47 152.814 53.6833 152.468 53.83C152.128 53.97 151.758 54.04 151.358 54.04ZM155.205 54V48.78H155.685V50.21L155.635 50.05C155.781 49.63 156.028 49.3067 156.375 49.08C156.721 48.8533 157.155 48.74 157.675 48.74V49.23C157.655 49.23 157.635 49.23 157.615 49.23C157.595 49.2233 157.575 49.22 157.555 49.22C156.975 49.22 156.521 49.4033 156.195 49.77C155.868 50.13 155.705 50.6333 155.705 51.28V54H155.205ZM161.123 54.04C160.597 54.04 160.13 53.9267 159.723 53.7C159.323 53.4733 159.007 53.16 158.773 52.76C158.547 52.36 158.433 51.9033 158.433 51.39C158.433 50.87 158.54 50.4133 158.753 50.02C158.973 49.62 159.273 49.3067 159.653 49.08C160.033 48.8533 160.46 48.74 160.933 48.74C161.407 48.74 161.83 48.85 162.203 49.07C162.583 49.29 162.88 49.6 163.093 50C163.313 50.3933 163.423 50.85 163.423 51.37C163.423 51.39 163.42 51.4133 163.413 51.44C163.413 51.46 163.413 51.4833 163.413 51.51H158.803V51.12H163.143L162.943 51.31C162.95 50.9033 162.863 50.54 162.683 50.22C162.51 49.8933 162.273 49.64 161.973 49.46C161.673 49.2733 161.327 49.18 160.933 49.18C160.547 49.18 160.2 49.2733 159.893 49.46C159.593 49.64 159.357 49.8933 159.183 50.22C159.01 50.54 158.923 50.9067 158.923 51.32V51.41C158.923 51.8367 159.017 52.2167 159.203 52.55C159.397 52.8767 159.66 53.1333 159.993 53.32C160.327 53.5 160.707 53.59 161.133 53.59C161.467 53.59 161.777 53.53 162.063 53.41C162.357 53.29 162.603 53.1067 162.803 52.86L163.093 53.19C162.867 53.47 162.58 53.6833 162.233 53.83C161.893 53.97 161.523 54.04 161.123 54.04ZM167.52 48.74C167.947 48.74 168.317 48.8233 168.63 48.99C168.95 49.15 169.197 49.3967 169.37 49.73C169.55 50.0567 169.64 50.4633 169.64 50.95V54H169.14V50.99C169.14 50.4033 168.99 49.9567 168.69 49.65C168.397 49.3433 167.983 49.19 167.45 49.19C167.043 49.19 166.69 49.2733 166.39 49.44C166.09 49.6067 165.86 49.84 165.7 50.14C165.547 50.44 165.47 50.8 165.47 51.22V54H164.97V48.78H165.45V50.23L165.38 50.07C165.54 49.6567 165.803 49.3333 166.17 49.1C166.537 48.86 166.987 48.74 167.52 48.74ZM173.219 54.04C172.759 54.04 172.405 53.9133 172.159 53.66C171.919 53.4067 171.799 53.06 171.799 52.62V47.64H172.299V52.57C172.299 52.9033 172.382 53.16 172.549 53.34C172.715 53.52 172.955 53.61 173.269 53.61C173.595 53.61 173.865 53.5133 174.079 53.32L174.289 53.67C174.155 53.7967 173.992 53.89 173.799 53.95C173.612 54.01 173.419 54.04 173.219 54.04ZM170.839 49.21V48.78H173.959V49.21H170.839Z" fill="white"/>
</svg>
