<svg width="211" height="55" viewBox="0 0 211 55" fill="none" xmlns="http://www.w3.org/2000/svg">
<rect width="211" height="54" transform="translate(0 0.5)" fill="white"/>
<path d="M17.756 26.244H26.38V31.228H17.756V26.244ZM18.204 37.5H11.596V17.9H27.528V22.884H18.204V37.5ZM38.9955 37.948C35.9902 37.948 33.6475 37.136 31.9675 35.512C30.2875 33.888 29.4475 31.6107 29.4475 28.68V17.9H36.0555V28.484C36.0555 29.9773 36.3262 31.0413 36.8675 31.676C37.4089 32.292 38.1369 32.6 39.0515 32.6C39.9849 32.6 40.7129 32.292 41.2355 31.676C41.7769 31.0413 42.0475 29.9773 42.0475 28.484V17.9H48.5435V28.68C48.5435 31.6107 47.7035 33.888 46.0235 35.512C44.3435 37.136 42.0009 37.948 38.9955 37.948ZM58.8806 37.948C57.2379 37.948 55.6512 37.7613 54.1206 37.388C52.5899 37.0147 51.3299 36.5293 50.3406 35.932L52.4686 31.116C53.4019 31.6573 54.4379 32.096 55.5766 32.432C56.7339 32.7493 57.8539 32.908 58.9366 32.908C59.5712 32.908 60.0659 32.8707 60.4206 32.796C60.7939 32.7027 61.0646 32.5813 61.2326 32.432C61.4006 32.264 61.4846 32.068 61.4846 31.844C61.4846 31.4893 61.2886 31.2093 60.8966 31.004C60.5046 30.7987 59.9819 30.6307 59.3286 30.5C58.6939 30.3507 57.9939 30.2013 57.2286 30.052C56.4632 29.884 55.6886 29.6693 54.9046 29.408C54.1392 29.1467 53.4299 28.8013 52.7766 28.372C52.1419 27.9427 51.6286 27.3827 51.2366 26.692C50.8446 25.9827 50.6486 25.1053 50.6486 24.06C50.6486 22.8467 50.9846 21.7453 51.6566 20.756C52.3472 19.748 53.3646 18.9453 54.7086 18.348C56.0712 17.7507 57.7606 17.452 59.7766 17.452C61.1019 17.452 62.4086 17.592 63.6966 17.872C64.9846 18.152 66.1419 18.5813 67.1686 19.16L65.1806 23.948C64.2099 23.4627 63.2672 23.0987 62.3526 22.856C61.4566 22.6133 60.5792 22.492 59.7206 22.492C59.0859 22.492 58.5819 22.548 58.2086 22.66C57.8352 22.772 57.5646 22.9213 57.3966 23.108C57.2472 23.2947 57.1726 23.5 57.1726 23.724C57.1726 24.06 57.3686 24.3307 57.7606 24.536C58.1526 24.7227 58.6659 24.8813 59.3006 25.012C59.9539 25.1427 60.6632 25.2827 61.4286 25.432C62.2126 25.5813 62.9872 25.7867 63.7526 26.048C64.5179 26.3093 65.2179 26.6547 65.8526 27.084C66.5059 27.5133 67.0286 28.0733 67.4206 28.764C67.8126 29.4547 68.0086 30.3133 68.0086 31.34C68.0086 32.5347 67.6632 33.636 66.9726 34.644C66.3006 35.6333 65.2926 36.436 63.9486 37.052C62.6046 37.6493 60.9152 37.948 58.8806 37.948ZM69.9749 37.5V17.9H76.5829V37.5H69.9749ZM90.04 37.948C88.4533 37.948 86.9786 37.696 85.616 37.192C84.272 36.688 83.1053 35.9787 82.116 35.064C81.1266 34.1307 80.352 33.0387 79.792 31.788C79.2506 30.5373 78.98 29.1747 78.98 27.7C78.98 26.2067 79.2506 24.844 79.792 23.612C80.352 22.3613 81.1266 21.2787 82.116 20.364C83.1053 19.4307 84.272 18.712 85.616 18.208C86.9786 17.704 88.4533 17.452 90.04 17.452C91.6453 17.452 93.12 17.704 94.464 18.208C95.808 18.712 96.9746 19.4307 97.964 20.364C98.9533 21.2787 99.7186 22.3613 100.26 23.612C100.82 24.844 101.1 26.2067 101.1 27.7C101.1 29.1747 100.82 30.5373 100.26 31.788C99.7186 33.0387 98.9533 34.1307 97.964 35.064C96.9746 35.9787 95.808 36.688 94.464 37.192C93.12 37.696 91.6453 37.948 90.04 37.948ZM90.04 32.6C90.656 32.6 91.2253 32.488 91.748 32.264C92.2893 32.04 92.756 31.7227 93.148 31.312C93.5586 30.8827 93.876 30.3693 94.1 29.772C94.324 29.156 94.436 28.4653 94.436 27.7C94.436 26.9347 94.324 26.2533 94.1 25.656C93.876 25.04 93.5586 24.5267 93.148 24.116C92.756 23.6867 92.2893 23.36 91.748 23.136C91.2253 22.912 90.656 22.8 90.04 22.8C89.424 22.8 88.8453 22.912 88.304 23.136C87.7813 23.36 87.3146 23.6867 86.904 24.116C86.512 24.5267 86.204 25.04 85.98 25.656C85.756 26.2533 85.644 26.9347 85.644 27.7C85.644 28.4653 85.756 29.156 85.98 29.772C86.204 30.3693 86.512 30.8827 86.904 31.312C87.3146 31.7227 87.7813 32.04 88.304 32.264C88.8453 32.488 89.424 32.6 90.04 32.6ZM103.498 37.5V17.9H108.93L118.898 29.828H116.378V17.9H122.818V37.5H117.386L107.418 25.572H109.938V37.5H103.498ZM125.666 31.788V27.028H134.066V31.788H125.666ZM142.252 37.5L133.964 17.9H141.076L147.824 34.448H143.596L150.54 17.9H157.036L148.748 37.5H142.252ZM167.696 37.948C166.11 37.948 164.635 37.696 163.272 37.192C161.928 36.688 160.762 35.9787 159.772 35.064C158.783 34.1307 158.008 33.0387 157.448 31.788C156.907 30.5373 156.636 29.1747 156.636 27.7C156.636 26.2067 156.907 24.844 157.448 23.612C158.008 22.3613 158.783 21.2787 159.772 20.364C160.762 19.4307 161.928 18.712 163.272 18.208C164.635 17.704 166.11 17.452 167.696 17.452C169.302 17.452 170.776 17.704 172.12 18.208C173.464 18.712 174.631 19.4307 175.62 20.364C176.61 21.2787 177.375 22.3613 177.916 23.612C178.476 24.844 178.756 26.2067 178.756 27.7C178.756 29.1747 178.476 30.5373 177.916 31.788C177.375 33.0387 176.61 34.1307 175.62 35.064C174.631 35.9787 173.464 36.688 172.12 37.192C170.776 37.696 169.302 37.948 167.696 37.948ZM167.696 32.6C168.312 32.6 168.882 32.488 169.404 32.264C169.946 32.04 170.412 31.7227 170.804 31.312C171.215 30.8827 171.532 30.3693 171.756 29.772C171.98 29.156 172.092 28.4653 172.092 27.7C172.092 26.9347 171.98 26.2533 171.756 25.656C171.532 25.04 171.215 24.5267 170.804 24.116C170.412 23.6867 169.946 23.36 169.404 23.136C168.882 22.912 168.312 22.8 167.696 22.8C167.08 22.8 166.502 22.912 165.96 23.136C165.438 23.36 164.971 23.6867 164.56 24.116C164.168 24.5267 163.86 25.04 163.636 25.656C163.412 26.2533 163.3 26.9347 163.3 27.7C163.3 28.4653 163.412 29.156 163.636 29.772C163.86 30.3693 164.168 30.8827 164.56 31.312C164.971 31.7227 165.438 32.04 165.96 32.264C166.502 32.488 167.08 32.6 167.696 32.6ZM178.624 37.5L187.36 25.292L187.332 29.912L178.876 17.9H186.296L191.224 25.18L188.06 25.208L192.876 17.9H199.988L191.532 29.66V25.068L200.408 37.5H192.848L187.92 29.884L190.972 29.856L186.156 37.5H178.624Z" fill="black"/>
</svg>
