<svg width="355" height="85" viewBox="0 0 355 85" fill="none" xmlns="http://www.w3.org/2000/svg">
<rect width="355" height="68" fill="white"/>
<path d="M23.296 31.704H38.08V40.248H23.296V31.704ZM24.064 51H12.736V17.4H40.048V25.944H24.064V51ZM60.6666 51.768C55.5146 51.768 51.4986 50.376 48.6186 47.592C45.7386 44.808 44.2986 40.904 44.2986 35.88V17.4H55.6266V35.544C55.6266 38.104 56.0906 39.928 57.0186 41.016C57.9466 42.072 59.1946 42.6 60.7626 42.6C62.3626 42.6 63.6106 42.072 64.5066 41.016C65.4346 39.928 65.8986 38.104 65.8986 35.544V17.4H77.0346V35.88C77.0346 40.904 75.5946 44.808 72.7146 47.592C69.8346 50.376 65.8186 51.768 60.6666 51.768ZM95.7152 51.768C92.8992 51.768 90.1792 51.448 87.5552 50.808C84.9312 50.168 82.7712 49.336 81.0752 48.312L84.7232 40.056C86.3232 40.984 88.0992 41.736 90.0512 42.312C92.0352 42.856 93.9552 43.128 95.8112 43.128C96.8992 43.128 97.7472 43.064 98.3552 42.936C98.9952 42.776 99.4592 42.568 99.7472 42.312C100.035 42.024 100.179 41.688 100.179 41.304C100.179 40.696 99.8432 40.216 99.1712 39.864C98.4992 39.512 97.6032 39.224 96.4832 39C95.3952 38.744 94.1952 38.488 92.8832 38.232C91.5712 37.944 90.2432 37.576 88.8992 37.128C87.5872 36.68 86.3712 36.088 85.2512 35.352C84.1632 34.616 83.2832 33.656 82.6112 32.472C81.9392 31.256 81.6032 29.752 81.6032 27.96C81.6032 25.88 82.1792 23.992 83.3312 22.296C84.5152 20.568 86.2592 19.192 88.5632 18.168C90.8992 17.144 93.7952 16.632 97.2512 16.632C99.5232 16.632 101.763 16.872 103.971 17.352C106.179 17.832 108.163 18.568 109.923 19.56L106.515 27.768C104.851 26.936 103.235 26.312 101.667 25.896C100.131 25.48 98.6272 25.272 97.1552 25.272C96.0672 25.272 95.2032 25.368 94.5632 25.56C93.9232 25.752 93.4592 26.008 93.1712 26.328C92.9152 26.648 92.7872 27 92.7872 27.384C92.7872 27.96 93.1232 28.424 93.7952 28.776C94.4672 29.096 95.3472 29.368 96.4352 29.592C97.5552 29.816 98.7712 30.056 100.083 30.312C101.427 30.568 102.755 30.92 104.067 31.368C105.379 31.816 106.579 32.408 107.667 33.144C108.787 33.88 109.683 34.84 110.355 36.024C111.027 37.208 111.363 38.68 111.363 40.44C111.363 42.488 110.771 44.376 109.587 46.104C108.435 47.8 106.707 49.176 104.403 50.232C102.099 51.256 99.2032 51.768 95.7152 51.768ZM115.694 51V17.4H127.022V51H115.694ZM151.051 51.768C148.331 51.768 145.803 51.336 143.467 50.472C141.163 49.608 139.163 48.392 137.467 46.824C135.771 45.224 134.443 43.352 133.483 41.208C132.555 39.064 132.091 36.728 132.091 34.2C132.091 31.64 132.555 29.304 133.483 27.192C134.443 25.048 135.771 23.192 137.467 21.624C139.163 20.024 141.163 18.792 143.467 17.928C145.803 17.064 148.331 16.632 151.051 16.632C153.803 16.632 156.331 17.064 158.635 17.928C160.939 18.792 162.939 20.024 164.635 21.624C166.331 23.192 167.643 25.048 168.571 27.192C169.531 29.304 170.011 31.64 170.011 34.2C170.011 36.728 169.531 39.064 168.571 41.208C167.643 43.352 166.331 45.224 164.635 46.824C162.939 48.392 160.939 49.608 158.635 50.472C156.331 51.336 153.803 51.768 151.051 51.768ZM151.051 42.6C152.107 42.6 153.083 42.408 153.979 42.024C154.907 41.64 155.707 41.096 156.379 40.392C157.083 39.656 157.627 38.776 158.011 37.752C158.395 36.696 158.587 35.512 158.587 34.2C158.587 32.888 158.395 31.72 158.011 30.696C157.627 29.64 157.083 28.76 156.379 28.056C155.707 27.32 154.907 26.76 153.979 26.376C153.083 25.992 152.107 25.8 151.051 25.8C149.995 25.8 149.003 25.992 148.075 26.376C147.179 26.76 146.379 27.32 145.675 28.056C145.003 28.76 144.475 29.64 144.091 30.696C143.707 31.72 143.515 32.888 143.515 34.2C143.515 35.512 143.707 36.696 144.091 37.752C144.475 38.776 145.003 39.656 145.675 40.392C146.379 41.096 147.179 41.64 148.075 42.024C149.003 42.408 149.995 42.6 151.051 42.6ZM175.083 51V17.4H184.395L201.483 37.848H197.163V17.4H208.203V51H198.891L181.803 30.552H186.123V51H175.083ZM214.045 41.208V33.048H228.445V41.208H214.045ZM243.438 51L229.23 17.4H241.422L252.99 45.768H245.742L257.646 17.4H268.782L254.574 51H243.438ZM288.016 51.768C285.296 51.768 282.768 51.336 280.432 50.472C278.128 49.608 276.128 48.392 274.432 46.824C272.736 45.224 271.408 43.352 270.448 41.208C269.52 39.064 269.056 36.728 269.056 34.2C269.056 31.64 269.52 29.304 270.448 27.192C271.408 25.048 272.736 23.192 274.432 21.624C276.128 20.024 278.128 18.792 280.432 17.928C282.768 17.064 285.296 16.632 288.016 16.632C290.768 16.632 293.296 17.064 295.6 17.928C297.904 18.792 299.904 20.024 301.6 21.624C303.296 23.192 304.608 25.048 305.536 27.192C306.496 29.304 306.976 31.64 306.976 34.2C306.976 36.728 306.496 39.064 305.536 41.208C304.608 43.352 303.296 45.224 301.6 46.824C299.904 48.392 297.904 49.608 295.6 50.472C293.296 51.336 290.768 51.768 288.016 51.768ZM288.016 42.6C289.072 42.6 290.048 42.408 290.944 42.024C291.872 41.64 292.672 41.096 293.344 40.392C294.048 39.656 294.592 38.776 294.976 37.752C295.36 36.696 295.552 35.512 295.552 34.2C295.552 32.888 295.36 31.72 294.976 30.696C294.592 29.64 294.048 28.76 293.344 28.056C292.672 27.32 291.872 26.76 290.944 26.376C290.048 25.992 289.072 25.8 288.016 25.8C286.96 25.8 285.968 25.992 285.04 26.376C284.144 26.76 283.344 27.32 282.64 28.056C281.968 28.76 281.44 29.64 281.056 30.696C280.672 31.72 280.48 32.888 280.48 34.2C280.48 35.512 280.672 36.696 281.056 37.752C281.44 38.776 281.968 39.656 282.64 40.392C283.344 41.096 284.144 41.64 285.04 42.024C285.968 42.408 286.96 42.6 288.016 42.6ZM307.709 51L322.685 30.072L322.637 37.992L308.141 17.4H320.861L329.309 29.88L323.885 29.928L332.141 17.4H344.333L329.837 37.56V29.688L345.053 51H332.093L323.645 37.944L328.877 37.896L320.621 51H307.709Z" fill="black"/>
<path d="M238.326 82.112C237.579 82.112 236.865 82 236.184 81.776C235.503 81.5427 234.966 81.244 234.574 80.88L235.092 79.788C235.465 80.1147 235.941 80.3853 236.52 80.6C237.099 80.8147 237.701 80.922 238.326 80.922C238.895 80.922 239.357 80.8567 239.712 80.726C240.067 80.5953 240.328 80.418 240.496 80.194C240.664 79.9607 240.748 79.6993 240.748 79.41C240.748 79.074 240.636 78.8033 240.412 78.598C240.197 78.3927 239.913 78.2293 239.558 78.108C239.213 77.9773 238.83 77.8653 238.41 77.772C237.99 77.6787 237.565 77.5713 237.136 77.45C236.716 77.3193 236.329 77.156 235.974 76.96C235.629 76.764 235.349 76.5027 235.134 76.176C234.919 75.84 234.812 75.4107 234.812 74.888C234.812 74.384 234.943 73.922 235.204 73.502C235.475 73.0727 235.885 72.732 236.436 72.48C236.996 72.2187 237.705 72.088 238.564 72.088C239.133 72.088 239.698 72.1627 240.258 72.312C240.818 72.4613 241.303 72.676 241.714 72.956L241.252 74.076C240.832 73.796 240.389 73.5953 239.922 73.474C239.455 73.3433 239.003 73.278 238.564 73.278C238.013 73.278 237.561 73.348 237.206 73.488C236.851 73.628 236.59 73.8147 236.422 74.048C236.263 74.2813 236.184 74.5427 236.184 74.832C236.184 75.1773 236.291 75.4527 236.506 75.658C236.73 75.8633 237.015 76.0267 237.36 76.148C237.715 76.2693 238.102 76.3813 238.522 76.484C238.942 76.5773 239.362 76.6847 239.782 76.806C240.211 76.9273 240.599 77.086 240.944 77.282C241.299 77.478 241.583 77.7393 241.798 78.066C242.013 78.3927 242.12 78.8127 242.12 79.326C242.12 79.8207 241.985 80.2827 241.714 80.712C241.443 81.132 241.023 81.4727 240.454 81.734C239.894 81.986 239.185 82.112 238.326 82.112ZM247.147 82.084C246.401 82.084 245.738 81.9207 245.159 81.594C244.581 81.2673 244.123 80.8193 243.787 80.25C243.451 79.6713 243.283 79.018 243.283 78.29C243.283 77.5527 243.451 76.8993 243.787 76.33C244.123 75.7607 244.581 75.3173 245.159 75C245.738 74.6733 246.401 74.51 247.147 74.51C247.885 74.51 248.543 74.6733 249.121 75C249.709 75.3173 250.167 75.7607 250.493 76.33C250.829 76.89 250.997 77.5433 250.997 78.29C250.997 79.0273 250.829 79.6807 250.493 80.25C250.167 80.8193 249.709 81.2673 249.121 81.594C248.543 81.9207 247.885 82.084 247.147 82.084ZM247.147 80.908C247.623 80.908 248.048 80.8007 248.421 80.586C248.804 80.3713 249.103 80.068 249.317 79.676C249.532 79.2747 249.639 78.8127 249.639 78.29C249.639 77.758 249.532 77.3007 249.317 76.918C249.103 76.526 248.804 76.2227 248.421 76.008C248.048 75.7933 247.623 75.686 247.147 75.686C246.671 75.686 246.247 75.7933 245.873 76.008C245.5 76.2227 245.201 76.526 244.977 76.918C244.753 77.3007 244.641 77.758 244.641 78.29C244.641 78.8127 244.753 79.2747 244.977 79.676C245.201 80.068 245.5 80.3713 245.873 80.586C246.247 80.8007 246.671 80.908 247.147 80.908ZM255.978 82.084C255.343 82.084 254.783 81.9673 254.298 81.734C253.822 81.5007 253.449 81.146 253.178 80.67C252.917 80.1847 252.786 79.578 252.786 78.85V74.58H254.13V78.696C254.13 79.424 254.303 79.97 254.648 80.334C255.003 80.698 255.497 80.88 256.132 80.88C256.599 80.88 257.005 80.7867 257.35 80.6C257.695 80.404 257.961 80.124 258.148 79.76C258.335 79.3867 258.428 78.9387 258.428 78.416V74.58H259.772V82H258.498V79.998L258.708 80.53C258.465 81.0247 258.101 81.4073 257.616 81.678C257.131 81.9487 256.585 82.084 255.978 82.084ZM266.293 74.51C266.899 74.51 267.431 74.6267 267.889 74.86C268.355 75.0933 268.719 75.448 268.981 75.924C269.242 76.4 269.373 77.002 269.373 77.73V82H268.029V77.884C268.029 77.1653 267.851 76.624 267.497 76.26C267.151 75.896 266.661 75.714 266.027 75.714C265.551 75.714 265.135 75.8073 264.781 75.994C264.426 76.1807 264.151 76.456 263.955 76.82C263.768 77.184 263.675 77.6367 263.675 78.178V82H262.331V74.58H263.619V76.582L263.409 76.05C263.651 75.5647 264.025 75.1867 264.529 74.916C265.033 74.6453 265.621 74.51 266.293 74.51ZM274.926 82.084C274.207 82.084 273.563 81.9253 272.994 81.608C272.434 81.2907 271.991 80.8473 271.664 80.278C271.337 79.7087 271.174 79.046 271.174 78.29C271.174 77.534 271.337 76.876 271.664 76.316C271.991 75.7467 272.434 75.3033 272.994 74.986C273.563 74.6687 274.207 74.51 274.926 74.51C275.551 74.51 276.116 74.65 276.62 74.93C277.124 75.21 277.525 75.63 277.824 76.19C278.132 76.75 278.286 77.45 278.286 78.29C278.286 79.13 278.137 79.83 277.838 80.39C277.549 80.95 277.152 81.3747 276.648 81.664C276.144 81.944 275.57 82.084 274.926 82.084ZM275.038 80.908C275.505 80.908 275.925 80.8007 276.298 80.586C276.681 80.3713 276.979 80.068 277.194 79.676C277.418 79.2747 277.53 78.8127 277.53 78.29C277.53 77.758 277.418 77.3007 277.194 76.918C276.979 76.526 276.681 76.2227 276.298 76.008C275.925 75.7933 275.505 75.686 275.038 75.686C274.562 75.686 274.137 75.7933 273.764 76.008C273.391 76.2227 273.092 76.526 272.868 76.918C272.644 77.3007 272.532 77.758 272.532 78.29C272.532 78.8127 272.644 79.2747 272.868 79.676C273.092 80.068 273.391 80.3713 273.764 80.586C274.137 80.8007 274.562 80.908 275.038 80.908ZM277.572 82V79.998L277.656 78.276L277.516 76.554V71.612H278.86V82H277.572ZM283.531 82.084C282.915 82.084 282.327 82 281.767 81.832C281.216 81.664 280.782 81.4587 280.465 81.216L281.025 80.152C281.342 80.3667 281.734 80.5487 282.201 80.698C282.668 80.8473 283.144 80.922 283.629 80.922C284.254 80.922 284.702 80.8333 284.973 80.656C285.253 80.4787 285.393 80.2313 285.393 79.914C285.393 79.6807 285.309 79.4987 285.141 79.368C284.973 79.2373 284.749 79.1393 284.469 79.074C284.198 79.0087 283.895 78.9527 283.559 78.906C283.223 78.85 282.887 78.7847 282.551 78.71C282.215 78.626 281.907 78.514 281.627 78.374C281.347 78.2247 281.123 78.024 280.955 77.772C280.787 77.5107 280.703 77.1653 280.703 76.736C280.703 76.288 280.829 75.896 281.081 75.56C281.333 75.224 281.688 74.9673 282.145 74.79C282.612 74.6033 283.162 74.51 283.797 74.51C284.282 74.51 284.772 74.5707 285.267 74.692C285.771 74.804 286.182 74.9673 286.499 75.182L285.925 76.246C285.589 76.022 285.239 75.868 284.875 75.784C284.511 75.7 284.147 75.658 283.783 75.658C283.195 75.658 282.756 75.756 282.467 75.952C282.178 76.1387 282.033 76.3813 282.033 76.68C282.033 76.932 282.117 77.128 282.285 77.268C282.462 77.3987 282.686 77.5013 282.957 77.576C283.237 77.6507 283.545 77.716 283.881 77.772C284.217 77.8187 284.553 77.884 284.889 77.968C285.225 78.0427 285.528 78.15 285.799 78.29C286.079 78.43 286.303 78.626 286.471 78.878C286.648 79.13 286.737 79.466 286.737 79.886C286.737 80.334 286.606 80.7213 286.345 81.048C286.084 81.3747 285.715 81.6313 285.239 81.818C284.763 81.9953 284.194 82.084 283.531 82.084ZM292.372 82V72.2H296.502C297.548 72.2 298.467 72.4053 299.26 72.816C300.063 73.2267 300.684 73.8007 301.122 74.538C301.57 75.2753 301.794 76.1293 301.794 77.1C301.794 78.0707 301.57 78.9247 301.122 79.662C300.684 80.3993 300.063 80.9733 299.26 81.384C298.467 81.7947 297.548 82 296.502 82H292.372ZM293.772 80.782H296.418C297.23 80.782 297.93 80.628 298.518 80.32C299.116 80.012 299.578 79.5827 299.904 79.032C300.231 78.472 300.394 77.828 300.394 77.1C300.394 76.3627 300.231 75.7187 299.904 75.168C299.578 74.6173 299.116 74.188 298.518 73.88C297.93 73.572 297.23 73.418 296.418 73.418H293.772V80.782ZM303.743 82V74.58H305.087V82H303.743ZM304.415 73.152C304.153 73.152 303.934 73.068 303.757 72.9C303.589 72.732 303.505 72.5267 303.505 72.284C303.505 72.032 303.589 71.822 303.757 71.654C303.934 71.486 304.153 71.402 304.415 71.402C304.676 71.402 304.891 71.486 305.059 71.654C305.236 71.8127 305.325 72.0133 305.325 72.256C305.325 72.508 305.241 72.7227 305.073 72.9C304.905 73.068 304.685 73.152 304.415 73.152ZM307.849 82V73.922C307.849 73.194 308.059 72.6153 308.479 72.186C308.908 71.7473 309.515 71.528 310.299 71.528C310.588 71.528 310.864 71.5653 311.125 71.64C311.396 71.7053 311.624 71.8127 311.811 71.962L311.405 72.984C311.265 72.872 311.106 72.788 310.929 72.732C310.752 72.6667 310.565 72.634 310.369 72.634C309.977 72.634 309.678 72.746 309.473 72.97C309.268 73.1847 309.165 73.5067 309.165 73.936V74.93L309.193 75.546V82H307.849ZM306.589 75.686V74.58H311.321V75.686H306.589ZM312.798 82V73.922C312.798 73.194 313.008 72.6153 313.428 72.186C313.857 71.7473 314.464 71.528 315.248 71.528C315.537 71.528 315.813 71.5653 316.074 71.64C316.345 71.7053 316.573 71.8127 316.76 71.962L316.354 72.984C316.214 72.872 316.055 72.788 315.878 72.732C315.701 72.6667 315.514 72.634 315.318 72.634C314.926 72.634 314.627 72.746 314.422 72.97C314.217 73.1847 314.114 73.5067 314.114 73.936V74.93L314.142 75.546V82H312.798ZM311.538 75.686V74.58H316.27V75.686H311.538ZM320.732 82.084C319.939 82.084 319.239 81.9207 318.632 81.594C318.035 81.2673 317.568 80.8193 317.232 80.25C316.906 79.6807 316.742 79.0273 316.742 78.29C316.742 77.5527 316.901 76.8993 317.218 76.33C317.545 75.7607 317.988 75.3173 318.548 75C319.118 74.6733 319.757 74.51 320.466 74.51C321.185 74.51 321.82 74.6687 322.37 74.986C322.921 75.3033 323.35 75.7513 323.658 76.33C323.976 76.8993 324.134 77.5667 324.134 78.332C324.134 78.388 324.13 78.4533 324.12 78.528C324.12 78.6027 324.116 78.6727 324.106 78.738H317.792V77.772H323.406L322.86 78.108C322.87 77.632 322.772 77.2073 322.566 76.834C322.361 76.4607 322.076 76.1713 321.712 75.966C321.358 75.7513 320.942 75.644 320.466 75.644C320 75.644 319.584 75.7513 319.22 75.966C318.856 76.1713 318.572 76.4653 318.366 76.848C318.161 77.2213 318.058 77.6507 318.058 78.136V78.36C318.058 78.8547 318.17 79.298 318.394 79.69C318.628 80.0727 318.95 80.3713 319.36 80.586C319.771 80.8007 320.242 80.908 320.774 80.908C321.213 80.908 321.61 80.8333 321.964 80.684C322.328 80.5347 322.646 80.3107 322.916 80.012L323.658 80.88C323.322 81.272 322.902 81.5707 322.398 81.776C321.904 81.9813 321.348 82.084 320.732 82.084ZM326.001 82V74.58H327.289V76.596L327.163 76.092C327.368 75.5787 327.713 75.1867 328.199 74.916C328.684 74.6453 329.281 74.51 329.991 74.51V75.812C329.935 75.8027 329.879 75.798 329.823 75.798C329.776 75.798 329.729 75.798 329.683 75.798C328.964 75.798 328.395 76.0127 327.975 76.442C327.555 76.8713 327.345 77.492 327.345 78.304V82H326.001ZM334.883 82.084C334.089 82.084 333.389 81.9207 332.783 81.594C332.185 81.2673 331.719 80.8193 331.383 80.25C331.056 79.6807 330.893 79.0273 330.893 78.29C330.893 77.5527 331.051 76.8993 331.369 76.33C331.695 75.7607 332.139 75.3173 332.699 75C333.268 74.6733 333.907 74.51 334.617 74.51C335.335 74.51 335.97 74.6687 336.521 74.986C337.071 75.3033 337.501 75.7513 337.809 76.33C338.126 76.8993 338.285 77.5667 338.285 78.332C338.285 78.388 338.28 78.4533 338.271 78.528C338.271 78.6027 338.266 78.6727 338.257 78.738H331.943V77.772H337.557L337.011 78.108C337.02 77.632 336.922 77.2073 336.717 76.834C336.511 76.4607 336.227 76.1713 335.863 75.966C335.508 75.7513 335.093 75.644 334.617 75.644C334.15 75.644 333.735 75.7513 333.371 75.966C333.007 76.1713 332.722 76.4653 332.517 76.848C332.311 77.2213 332.209 77.6507 332.209 78.136V78.36C332.209 78.8547 332.321 79.298 332.545 79.69C332.778 80.0727 333.1 80.3713 333.511 80.586C333.921 80.8007 334.393 80.908 334.925 80.908C335.363 80.908 335.76 80.8333 336.115 80.684C336.479 80.5347 336.796 80.3107 337.067 80.012L337.809 80.88C337.473 81.272 337.053 81.5707 336.549 81.776C336.054 81.9813 335.499 82.084 334.883 82.084ZM344.113 74.51C344.72 74.51 345.252 74.6267 345.709 74.86C346.176 75.0933 346.54 75.448 346.801 75.924C347.062 76.4 347.193 77.002 347.193 77.73V82H345.849V77.884C345.849 77.1653 345.672 76.624 345.317 76.26C344.972 75.896 344.482 75.714 343.847 75.714C343.371 75.714 342.956 75.8073 342.601 75.994C342.246 76.1807 341.971 76.456 341.775 76.82C341.588 77.184 341.495 77.6367 341.495 78.178V82H340.151V74.58H341.439V76.582L341.229 76.05C341.472 75.5647 341.845 75.1867 342.349 74.916C342.853 74.6453 343.441 74.51 344.113 74.51ZM352.228 82.084C351.482 82.084 350.903 81.8833 350.492 81.482C350.082 81.0807 349.876 80.5067 349.876 79.76V72.956H351.22V79.704C351.22 80.1053 351.318 80.4133 351.514 80.628C351.72 80.8427 352.009 80.95 352.382 80.95C352.802 80.95 353.152 80.8333 353.432 80.6L353.852 81.566C353.647 81.7433 353.4 81.874 353.11 81.958C352.83 82.042 352.536 82.084 352.228 82.084ZM348.616 75.686V74.58H353.348V75.686H348.616Z" fill="white"/>
</svg>
