<svg width="171" height="42" viewBox="0 0 171 42" fill="none" xmlns="http://www.w3.org/2000/svg">
<rect width="170" height="41" transform="translate(0.85791 0.993652)" fill="white"/>
<path d="M16.9519 20.1497H23.7279V24.0657H16.9519V20.1497ZM17.3039 28.9937H12.1119V13.5937H24.6299V17.5097H17.3039V28.9937ZM33.6401 29.3457C31.2788 29.3457 29.4381 28.7077 28.1181 27.4317C26.7981 26.1557 26.1381 24.3663 26.1381 22.0637V13.5937H31.3301V21.9097C31.3301 23.083 31.5428 23.919 31.9681 24.4177C32.3934 24.9017 32.9654 25.1437 33.6841 25.1437C34.4174 25.1437 34.9894 24.9017 35.4001 24.4177C35.8254 23.919 36.0381 23.083 36.0381 21.9097V13.5937H41.1421V22.0637C41.1421 24.3663 40.4821 26.1557 39.1621 27.4317C37.8421 28.7077 36.0014 29.3457 33.6401 29.3457ZM49.2641 29.3457C47.9734 29.3457 46.7267 29.199 45.5241 28.9057C44.3214 28.6123 43.3314 28.231 42.5541 27.7617L44.2261 23.9777C44.9594 24.403 45.7734 24.7477 46.6681 25.0117C47.5774 25.261 48.4574 25.3857 49.3081 25.3857C49.8067 25.3857 50.1954 25.3563 50.4741 25.2977C50.7674 25.2243 50.9801 25.129 51.1121 25.0117C51.2441 24.8797 51.3101 24.7257 51.3101 24.5497C51.3101 24.271 51.1561 24.051 50.8481 23.8897C50.5401 23.7283 50.1294 23.5963 49.6161 23.4937C49.1174 23.3763 48.5674 23.259 47.9661 23.1417C47.3647 23.0097 46.7561 22.841 46.1401 22.6357C45.5387 22.4303 44.9814 22.159 44.4681 21.8217C43.9694 21.4843 43.5661 21.0443 43.2581 20.5017C42.9501 19.9443 42.7961 19.255 42.7961 18.4337C42.7961 17.4803 43.0601 16.615 43.5881 15.8377C44.1307 15.0457 44.9301 14.415 45.9861 13.9457C47.0567 13.4763 48.3841 13.2417 49.9681 13.2417C51.0094 13.2417 52.0361 13.3517 53.0481 13.5717C54.0601 13.7917 54.9694 14.129 55.7761 14.5837L54.2141 18.3457C53.4514 17.9643 52.7107 17.6783 51.9921 17.4877C51.2881 17.297 50.5987 17.2017 49.9241 17.2017C49.4254 17.2017 49.0294 17.2457 48.7361 17.3337C48.4427 17.4217 48.2301 17.539 48.0981 17.6857C47.9807 17.8323 47.9221 17.9937 47.9221 18.1697C47.9221 18.4337 48.0761 18.6463 48.3841 18.8077C48.6921 18.9543 49.0954 19.079 49.5941 19.1817C50.1074 19.2843 50.6647 19.3943 51.2661 19.5117C51.8821 19.629 52.4907 19.7903 53.0921 19.9957C53.6934 20.201 54.2434 20.4723 54.7421 20.8097C55.2554 21.147 55.6661 21.587 55.9741 22.1297C56.2821 22.6723 56.4361 23.347 56.4361 24.1537C56.4361 25.0923 56.1647 25.9577 55.6221 26.7497C55.0941 27.527 54.3021 28.1577 53.2461 28.6417C52.1901 29.111 50.8627 29.3457 49.2641 29.3457ZM57.9811 28.9937V13.5937H63.1731V28.9937H57.9811ZM73.7465 29.3457C72.4998 29.3457 71.3411 29.1477 70.2705 28.7517C69.2145 28.3557 68.2978 27.7983 67.5205 27.0797C66.7431 26.3463 66.1345 25.4883 65.6945 24.5057C65.2691 23.523 65.0565 22.4523 65.0565 21.2937C65.0565 20.1203 65.2691 19.0497 65.6945 18.0817C66.1345 17.099 66.7431 16.2483 67.5205 15.5297C68.2978 14.7963 69.2145 14.2317 70.2705 13.8357C71.3411 13.4397 72.4998 13.2417 73.7465 13.2417C75.0078 13.2417 76.1665 13.4397 77.2225 13.8357C78.2785 14.2317 79.1951 14.7963 79.9725 15.5297C80.7498 16.2483 81.3511 17.099 81.7765 18.0817C82.2165 19.0497 82.4365 20.1203 82.4365 21.2937C82.4365 22.4523 82.2165 23.523 81.7765 24.5057C81.3511 25.4883 80.7498 26.3463 79.9725 27.0797C79.1951 27.7983 78.2785 28.3557 77.2225 28.7517C76.1665 29.1477 75.0078 29.3457 73.7465 29.3457ZM73.7465 25.1437C74.2305 25.1437 74.6778 25.0557 75.0885 24.8797C75.5138 24.7037 75.8805 24.4543 76.1885 24.1317C76.5111 23.7943 76.7605 23.391 76.9365 22.9217C77.1125 22.4377 77.2005 21.895 77.2005 21.2937C77.2005 20.6923 77.1125 20.157 76.9365 19.6877C76.7605 19.2037 76.5111 18.8003 76.1885 18.4777C75.8805 18.1403 75.5138 17.8837 75.0885 17.7077C74.6778 17.5317 74.2305 17.4437 73.7465 17.4437C73.2625 17.4437 72.8078 17.5317 72.3825 17.7077C71.9718 17.8837 71.6051 18.1403 71.2825 18.4777C70.9745 18.8003 70.7325 19.2037 70.5565 19.6877C70.3805 20.157 70.2925 20.6923 70.2925 21.2937C70.2925 21.895 70.3805 22.4377 70.5565 22.9217C70.7325 23.391 70.9745 23.7943 71.2825 24.1317C71.6051 24.4543 71.9718 24.7037 72.3825 24.8797C72.8078 25.0557 73.2625 25.1437 73.7465 25.1437ZM84.3209 28.9937V13.5937H88.5889L96.4209 22.9657H94.4409V13.5937H99.5009V28.9937H95.2329L87.4009 19.6217H89.3809V28.9937H84.3209ZM101.739 24.5057V20.7657H108.339V24.5057H101.739ZM114.77 28.9937L108.258 13.5937H113.846L119.148 26.5957H115.826L121.282 13.5937H126.386L119.874 28.9937H114.77ZM134.762 29.3457C133.515 29.3457 132.357 29.1477 131.286 28.7517C130.23 28.3557 129.313 27.7983 128.536 27.0797C127.759 26.3463 127.15 25.4883 126.71 24.5057C126.285 23.523 126.072 22.4523 126.072 21.2937C126.072 20.1203 126.285 19.0497 126.71 18.0817C127.15 17.099 127.759 16.2483 128.536 15.5297C129.313 14.7963 130.23 14.2317 131.286 13.8357C132.357 13.4397 133.515 13.2417 134.762 13.2417C136.023 13.2417 137.182 13.4397 138.238 13.8357C139.294 14.2317 140.211 14.7963 140.988 15.5297C141.765 16.2483 142.367 17.099 142.792 18.0817C143.232 19.0497 143.452 20.1203 143.452 21.2937C143.452 22.4523 143.232 23.523 142.792 24.5057C142.367 25.4883 141.765 26.3463 140.988 27.0797C140.211 27.7983 139.294 28.3557 138.238 28.7517C137.182 29.1477 136.023 29.3457 134.762 29.3457ZM134.762 25.1437C135.246 25.1437 135.693 25.0557 136.104 24.8797C136.529 24.7037 136.896 24.4543 137.204 24.1317C137.527 23.7943 137.776 23.391 137.952 22.9217C138.128 22.4377 138.216 21.895 138.216 21.2937C138.216 20.6923 138.128 20.157 137.952 19.6877C137.776 19.2037 137.527 18.8003 137.204 18.4777C136.896 18.1403 136.529 17.8837 136.104 17.7077C135.693 17.5317 135.246 17.4437 134.762 17.4437C134.278 17.4437 133.823 17.5317 133.398 17.7077C132.987 17.8837 132.621 18.1403 132.298 18.4777C131.99 18.8003 131.748 19.2037 131.572 19.6877C131.396 20.157 131.308 20.6923 131.308 21.2937C131.308 21.895 131.396 22.4377 131.572 22.9217C131.748 23.391 131.99 23.7943 132.298 24.1317C132.621 24.4543 132.987 24.7037 133.398 24.8797C133.823 25.0557 134.278 25.1437 134.762 25.1437ZM143.348 28.9937L150.212 19.4017L150.19 23.0317L143.546 13.5937H149.376L153.248 19.3137L150.762 19.3357L154.546 13.5937H160.134L153.49 22.8337V19.2257L160.464 28.9937H154.524L150.652 23.0097L153.05 22.9877L149.266 28.9937H143.348Z" fill="black"/>
</svg>
