<svg width="265" height="79" viewBox="0 0 265 79" fill="none" xmlns="http://www.w3.org/2000/svg">
<rect width="265" height="64" fill="white"/>
<path d="M19.972 30.528H31.06V36.936H19.972V30.528ZM20.548 45H12.052V19.8H32.536V26.208H20.548V45ZM47.28 45.576C43.416 45.576 40.404 44.532 38.244 42.444C36.084 40.356 35.004 37.428 35.004 33.66V19.8H43.5V33.408C43.5 35.328 43.848 36.696 44.544 37.512C45.24 38.304 46.176 38.7 47.352 38.7C48.552 38.7 49.488 38.304 50.16 37.512C50.856 36.696 51.204 35.328 51.204 33.408V19.8H59.556V33.66C59.556 37.428 58.476 40.356 56.316 42.444C54.156 44.532 51.144 45.576 47.28 45.576ZM72.8464 45.576C70.7344 45.576 68.6944 45.336 66.7264 44.856C64.7584 44.376 63.1384 43.752 61.8664 42.984L64.6024 36.792C65.8024 37.488 67.1344 38.052 68.5984 38.484C70.0864 38.892 71.5264 39.096 72.9184 39.096C73.7344 39.096 74.3704 39.048 74.8264 38.952C75.3064 38.832 75.6544 38.676 75.8704 38.484C76.0864 38.268 76.1944 38.016 76.1944 37.728C76.1944 37.272 75.9424 36.912 75.4384 36.648C74.9344 36.384 74.2624 36.168 73.4224 36C72.6064 35.808 71.7064 35.616 70.7224 35.424C69.7384 35.208 68.7424 34.932 67.7344 34.596C66.7504 34.26 65.8384 33.816 64.9984 33.264C64.1824 32.712 63.5224 31.992 63.0184 31.104C62.5144 30.192 62.2624 29.064 62.2624 27.72C62.2624 26.16 62.6944 24.744 63.5584 23.472C64.4464 22.176 65.7544 21.144 67.4824 20.376C69.2344 19.608 71.4064 19.224 73.9984 19.224C75.7024 19.224 77.3824 19.404 79.0384 19.764C80.6944 20.124 82.1824 20.676 83.5024 21.42L80.9464 27.576C79.6984 26.952 78.4864 26.484 77.3104 26.172C76.1584 25.86 75.0304 25.704 73.9264 25.704C73.1104 25.704 72.4624 25.776 71.9824 25.92C71.5024 26.064 71.1544 26.256 70.9384 26.496C70.7464 26.736 70.6504 27 70.6504 27.288C70.6504 27.72 70.9024 28.068 71.4064 28.332C71.9104 28.572 72.5704 28.776 73.3864 28.944C74.2264 29.112 75.1384 29.292 76.1224 29.484C77.1304 29.676 78.1264 29.94 79.1104 30.276C80.0944 30.612 80.9944 31.056 81.8104 31.608C82.6504 32.16 83.3224 32.88 83.8264 33.768C84.3304 34.656 84.5824 35.76 84.5824 37.08C84.5824 38.616 84.1384 40.032 83.2504 41.328C82.3864 42.6 81.0904 43.632 79.3624 44.424C77.6344 45.192 75.4624 45.576 72.8464 45.576ZM87.1106 45V19.8H95.6066V45H87.1106ZM112.909 45.576C110.869 45.576 108.973 45.252 107.221 44.604C105.493 43.956 103.993 43.044 102.721 41.868C101.449 40.668 100.453 39.264 99.7325 37.656C99.0365 36.048 98.6885 34.296 98.6885 32.4C98.6885 30.48 99.0365 28.728 99.7325 27.144C100.453 25.536 101.449 24.144 102.721 22.968C103.993 21.768 105.493 20.844 107.221 20.196C108.973 19.548 110.869 19.224 112.909 19.224C114.973 19.224 116.869 19.548 118.597 20.196C120.325 20.844 121.825 21.768 123.097 22.968C124.369 24.144 125.353 25.536 126.049 27.144C126.769 28.728 127.129 30.48 127.129 32.4C127.129 34.296 126.769 36.048 126.049 37.656C125.353 39.264 124.369 40.668 123.097 41.868C121.825 43.044 120.325 43.956 118.597 44.604C116.869 45.252 114.973 45.576 112.909 45.576ZM112.909 38.7C113.701 38.7 114.433 38.556 115.105 38.268C115.801 37.98 116.401 37.572 116.905 37.044C117.433 36.492 117.841 35.832 118.129 35.064C118.417 34.272 118.561 33.384 118.561 32.4C118.561 31.416 118.417 30.54 118.129 29.772C117.841 28.98 117.433 28.32 116.905 27.792C116.401 27.24 115.801 26.82 115.105 26.532C114.433 26.244 113.701 26.1 112.909 26.1C112.117 26.1 111.373 26.244 110.677 26.532C110.005 26.82 109.405 27.24 108.877 27.792C108.373 28.32 107.977 28.98 107.689 29.772C107.401 30.54 107.257 31.416 107.257 32.4C107.257 33.384 107.401 34.272 107.689 35.064C107.977 35.832 108.373 36.492 108.877 37.044C109.405 37.572 110.005 37.98 110.677 38.268C111.373 38.556 112.117 38.7 112.909 38.7ZM130.212 45V19.8H137.196L150.012 35.136H146.772V19.8H155.052V45H148.068L135.252 29.664H138.492V45H130.212ZM158.714 37.656V31.536H169.514V37.656H158.714ZM180.038 45L169.382 19.8H178.526L187.202 41.076H181.766L190.694 19.8H199.046L188.39 45H180.038ZM212.752 45.576C210.712 45.576 208.816 45.252 207.064 44.604C205.336 43.956 203.836 43.044 202.564 41.868C201.292 40.668 200.296 39.264 199.576 37.656C198.88 36.048 198.532 34.296 198.532 32.4C198.532 30.48 198.88 28.728 199.576 27.144C200.296 25.536 201.292 24.144 202.564 22.968C203.836 21.768 205.336 20.844 207.064 20.196C208.816 19.548 210.712 19.224 212.752 19.224C214.816 19.224 216.712 19.548 218.44 20.196C220.168 20.844 221.668 21.768 222.94 22.968C224.212 24.144 225.196 25.536 225.892 27.144C226.612 28.728 226.972 30.48 226.972 32.4C226.972 34.296 226.612 36.048 225.892 37.656C225.196 39.264 224.212 40.668 222.94 41.868C221.668 43.044 220.168 43.956 218.44 44.604C216.712 45.252 214.816 45.576 212.752 45.576ZM212.752 38.7C213.544 38.7 214.276 38.556 214.948 38.268C215.644 37.98 216.244 37.572 216.748 37.044C217.276 36.492 217.684 35.832 217.972 35.064C218.26 34.272 218.404 33.384 218.404 32.4C218.404 31.416 218.26 30.54 217.972 29.772C217.684 28.98 217.276 28.32 216.748 27.792C216.244 27.24 215.644 26.82 214.948 26.532C214.276 26.244 213.544 26.1 212.752 26.1C211.96 26.1 211.216 26.244 210.52 26.532C209.848 26.82 209.248 27.24 208.72 27.792C208.216 28.32 207.82 28.98 207.532 29.772C207.244 30.54 207.1 31.416 207.1 32.4C207.1 33.384 207.244 34.272 207.532 35.064C207.82 35.832 208.216 36.492 208.72 37.044C209.248 37.572 209.848 37.98 210.52 38.268C211.216 38.556 211.96 38.7 212.752 38.7ZM226.802 45L238.034 29.304L237.998 35.244L227.126 19.8H236.666L243.002 29.16L238.934 29.196L245.126 19.8H254.27L243.398 34.92V29.016L254.81 45H245.09L238.754 35.208L242.678 35.172L236.486 45H226.802Z" fill="black"/>
<path d="M166.684 76.072C166.06 76.072 165.46 75.972 164.884 75.772C164.316 75.572 163.876 75.308 163.564 74.98L163.912 74.296C164.216 74.6 164.62 74.848 165.124 75.04C165.628 75.224 166.148 75.316 166.684 75.316C167.436 75.316 168 75.18 168.376 74.908C168.752 74.628 168.94 74.268 168.94 73.828C168.94 73.492 168.836 73.224 168.628 73.024C168.428 72.824 168.18 72.672 167.884 72.568C167.588 72.456 167.176 72.336 166.648 72.208C166.016 72.048 165.512 71.896 165.136 71.752C164.76 71.6 164.436 71.372 164.164 71.068C163.9 70.764 163.768 70.352 163.768 69.832C163.768 69.408 163.88 69.024 164.104 68.68C164.328 68.328 164.672 68.048 165.136 67.84C165.6 67.632 166.176 67.528 166.864 67.528C167.344 67.528 167.812 67.596 168.268 67.732C168.732 67.86 169.132 68.04 169.468 68.272L169.168 68.98C168.816 68.748 168.44 68.576 168.04 68.464C167.64 68.344 167.248 68.284 166.864 68.284C166.128 68.284 165.572 68.428 165.196 68.716C164.828 68.996 164.644 69.36 164.644 69.808C164.644 70.144 164.744 70.416 164.944 70.624C165.152 70.824 165.408 70.98 165.712 71.092C166.024 71.196 166.44 71.312 166.96 71.44C167.576 71.592 168.072 71.744 168.448 71.896C168.832 72.04 169.156 72.264 169.42 72.568C169.684 72.864 169.816 73.268 169.816 73.78C169.816 74.204 169.7 74.592 169.468 74.944C169.244 75.288 168.896 75.564 168.424 75.772C167.952 75.972 167.372 76.072 166.684 76.072ZM174.151 76.06C173.543 76.06 172.995 75.924 172.507 75.652C172.019 75.372 171.635 74.988 171.355 74.5C171.075 74.012 170.935 73.46 170.935 72.844C170.935 72.228 171.075 71.676 171.355 71.188C171.635 70.7 172.019 70.32 172.507 70.048C172.995 69.776 173.543 69.64 174.151 69.64C174.759 69.64 175.307 69.776 175.795 70.048C176.283 70.32 176.663 70.7 176.935 71.188C177.215 71.676 177.355 72.228 177.355 72.844C177.355 73.46 177.215 74.012 176.935 74.5C176.663 74.988 176.283 75.372 175.795 75.652C175.307 75.924 174.759 76.06 174.151 76.06ZM174.151 75.304C174.599 75.304 174.999 75.204 175.351 75.004C175.711 74.796 175.991 74.504 176.191 74.128C176.391 73.752 176.491 73.324 176.491 72.844C176.491 72.364 176.391 71.936 176.191 71.56C175.991 71.184 175.711 70.896 175.351 70.696C174.999 70.488 174.599 70.384 174.151 70.384C173.703 70.384 173.299 70.488 172.939 70.696C172.587 70.896 172.307 71.184 172.099 71.56C171.899 71.936 171.799 72.364 171.799 72.844C171.799 73.324 171.899 73.752 172.099 74.128C172.307 74.504 172.587 74.796 172.939 75.004C173.299 75.204 173.703 75.304 174.151 75.304ZM184.782 69.688V76H183.966V74.848C183.742 75.232 183.434 75.532 183.042 75.748C182.65 75.956 182.202 76.06 181.698 76.06C180.874 76.06 180.222 75.832 179.742 75.376C179.27 74.912 179.034 74.236 179.034 73.348V69.688H179.886V73.264C179.886 73.928 180.05 74.432 180.378 74.776C180.706 75.12 181.174 75.292 181.782 75.292C182.446 75.292 182.97 75.092 183.354 74.692C183.738 74.284 183.93 73.72 183.93 73V69.688H184.782ZM190.384 69.64C191.176 69.64 191.804 69.872 192.268 70.336C192.74 70.792 192.976 71.46 192.976 72.34V76H192.124V72.424C192.124 71.768 191.96 71.268 191.632 70.924C191.304 70.58 190.836 70.408 190.228 70.408C189.548 70.408 189.008 70.612 188.608 71.02C188.216 71.42 188.02 71.976 188.02 72.688V76H187.168V69.688H187.984V70.852C188.216 70.468 188.536 70.172 188.944 69.964C189.36 69.748 189.84 69.64 190.384 69.64ZM201.073 67.096V76H200.257V74.752C200.001 75.176 199.661 75.5 199.237 75.724C198.821 75.948 198.349 76.06 197.821 76.06C197.229 76.06 196.693 75.924 196.213 75.652C195.733 75.38 195.357 75 195.085 74.512C194.813 74.024 194.677 73.468 194.677 72.844C194.677 72.22 194.813 71.664 195.085 71.176C195.357 70.688 195.733 70.312 196.213 70.048C196.693 69.776 197.229 69.64 197.821 69.64C198.333 69.64 198.793 69.748 199.201 69.964C199.617 70.172 199.957 70.48 200.221 70.888V67.096H201.073ZM197.893 75.304C198.333 75.304 198.729 75.204 199.081 75.004C199.441 74.796 199.721 74.504 199.921 74.128C200.129 73.752 200.233 73.324 200.233 72.844C200.233 72.364 200.129 71.936 199.921 71.56C199.721 71.184 199.441 70.896 199.081 70.696C198.729 70.488 198.333 70.384 197.893 70.384C197.445 70.384 197.041 70.488 196.681 70.696C196.329 70.896 196.049 71.184 195.841 71.56C195.641 71.936 195.541 72.364 195.541 72.844C195.541 73.324 195.641 73.752 195.841 74.128C196.049 74.504 196.329 74.796 196.681 75.004C197.041 75.204 197.445 75.304 197.893 75.304ZM205.138 76.06C204.626 76.06 204.134 75.988 203.662 75.844C203.198 75.692 202.834 75.504 202.57 75.28L202.954 74.608C203.218 74.816 203.55 74.988 203.95 75.124C204.35 75.252 204.766 75.316 205.198 75.316C205.774 75.316 206.198 75.228 206.47 75.052C206.75 74.868 206.89 74.612 206.89 74.284C206.89 74.052 206.814 73.872 206.662 73.744C206.51 73.608 206.318 73.508 206.086 73.444C205.854 73.372 205.546 73.304 205.162 73.24C204.65 73.144 204.238 73.048 203.926 72.952C203.614 72.848 203.346 72.676 203.122 72.436C202.906 72.196 202.798 71.864 202.798 71.44C202.798 70.912 203.018 70.48 203.458 70.144C203.898 69.808 204.51 69.64 205.294 69.64C205.702 69.64 206.11 69.696 206.518 69.808C206.926 69.912 207.262 70.052 207.526 70.228L207.154 70.912C206.634 70.552 206.014 70.372 205.294 70.372C204.75 70.372 204.338 70.468 204.058 70.66C203.786 70.852 203.65 71.104 203.65 71.416C203.65 71.656 203.726 71.848 203.878 71.992C204.038 72.136 204.234 72.244 204.466 72.316C204.698 72.38 205.018 72.448 205.426 72.52C205.93 72.616 206.334 72.712 206.638 72.808C206.942 72.904 207.202 73.068 207.418 73.3C207.634 73.532 207.742 73.852 207.742 74.26C207.742 74.812 207.51 75.252 207.046 75.58C206.59 75.9 205.954 76.06 205.138 76.06ZM212.638 67.6H216.058C216.946 67.6 217.73 67.78 218.41 68.14C219.09 68.492 219.618 68.988 219.994 69.628C220.37 70.26 220.558 70.984 220.558 71.8C220.558 72.616 220.37 73.344 219.994 73.984C219.618 74.616 219.09 75.112 218.41 75.472C217.73 75.824 216.946 76 216.058 76H212.638V67.6ZM216.01 75.232C216.746 75.232 217.39 75.088 217.942 74.8C218.494 74.504 218.922 74.1 219.226 73.588C219.53 73.068 219.682 72.472 219.682 71.8C219.682 71.128 219.53 70.536 219.226 70.024C218.922 69.504 218.494 69.1 217.942 68.812C217.39 68.516 216.746 68.368 216.01 68.368H213.526V75.232H216.01ZM222.372 69.688H223.224V76H222.372V69.688ZM222.804 68.308C222.628 68.308 222.48 68.248 222.36 68.128C222.24 68.008 222.18 67.864 222.18 67.696C222.18 67.536 222.24 67.396 222.36 67.276C222.48 67.156 222.628 67.096 222.804 67.096C222.98 67.096 223.128 67.156 223.248 67.276C223.368 67.388 223.428 67.524 223.428 67.684C223.428 67.86 223.368 68.008 223.248 68.128C223.128 68.248 222.98 68.308 222.804 68.308ZM227.682 67.756C227.314 67.756 227.034 67.856 226.842 68.056C226.658 68.256 226.566 68.552 226.566 68.944V69.688H228.51V70.408H226.59V76H225.738V70.408H224.61V69.688H225.738V68.908C225.738 68.332 225.902 67.876 226.23 67.54C226.566 67.204 227.038 67.036 227.646 67.036C227.886 67.036 228.118 67.072 228.342 67.144C228.566 67.208 228.754 67.304 228.906 67.432L228.618 68.068C228.37 67.86 228.058 67.756 227.682 67.756ZM231.749 67.756C231.381 67.756 231.101 67.856 230.909 68.056C230.725 68.256 230.633 68.552 230.633 68.944V69.688H232.577V70.408H230.657V76H229.805V70.408H228.677V69.688H229.805V68.908C229.805 68.332 229.969 67.876 230.297 67.54C230.633 67.204 231.105 67.036 231.713 67.036C231.953 67.036 232.185 67.072 232.409 67.144C232.633 67.208 232.821 67.304 232.973 67.432L232.685 68.068C232.437 67.86 232.125 67.756 231.749 67.756ZM239.118 73.108H233.838C233.886 73.764 234.138 74.296 234.594 74.704C235.05 75.104 235.626 75.304 236.322 75.304C236.714 75.304 237.074 75.236 237.402 75.1C237.73 74.956 238.014 74.748 238.254 74.476L238.734 75.028C238.454 75.364 238.102 75.62 237.678 75.796C237.262 75.972 236.802 76.06 236.298 76.06C235.65 76.06 235.074 75.924 234.57 75.652C234.074 75.372 233.686 74.988 233.406 74.5C233.126 74.012 232.986 73.46 232.986 72.844C232.986 72.228 233.118 71.676 233.382 71.188C233.654 70.7 234.022 70.32 234.486 70.048C234.958 69.776 235.486 69.64 236.07 69.64C236.654 69.64 237.178 69.776 237.642 70.048C238.106 70.32 238.47 70.7 238.734 71.188C238.998 71.668 239.13 72.22 239.13 72.844L239.118 73.108ZM236.07 70.372C235.462 70.372 234.95 70.568 234.534 70.96C234.126 71.344 233.894 71.848 233.838 72.472H238.314C238.258 71.848 238.022 71.344 237.606 70.96C237.198 70.568 236.686 70.372 236.07 70.372ZM241.68 70.924C241.88 70.5 242.176 70.18 242.568 69.964C242.968 69.748 243.46 69.64 244.044 69.64V70.468L243.84 70.456C243.176 70.456 242.656 70.66 242.28 71.068C241.904 71.476 241.716 72.048 241.716 72.784V76H240.864V69.688H241.68V70.924ZM251.024 73.108H245.744C245.792 73.764 246.044 74.296 246.5 74.704C246.956 75.104 247.532 75.304 248.228 75.304C248.62 75.304 248.98 75.236 249.308 75.1C249.636 74.956 249.92 74.748 250.16 74.476L250.64 75.028C250.36 75.364 250.008 75.62 249.584 75.796C249.168 75.972 248.708 76.06 248.204 76.06C247.556 76.06 246.98 75.924 246.476 75.652C245.98 75.372 245.592 74.988 245.312 74.5C245.032 74.012 244.892 73.46 244.892 72.844C244.892 72.228 245.024 71.676 245.288 71.188C245.56 70.7 245.928 70.32 246.392 70.048C246.864 69.776 247.392 69.64 247.976 69.64C248.56 69.64 249.084 69.776 249.548 70.048C250.012 70.32 250.376 70.7 250.64 71.188C250.904 71.668 251.036 72.22 251.036 72.844L251.024 73.108ZM247.976 70.372C247.368 70.372 246.856 70.568 246.44 70.96C246.032 71.344 245.8 71.848 245.744 72.472H250.22C250.164 71.848 249.928 71.344 249.512 70.96C249.104 70.568 248.592 70.372 247.976 70.372ZM255.986 69.64C256.778 69.64 257.406 69.872 257.87 70.336C258.342 70.792 258.578 71.46 258.578 72.34V76H257.726V72.424C257.726 71.768 257.562 71.268 257.234 70.924C256.906 70.58 256.438 70.408 255.83 70.408C255.15 70.408 254.61 70.612 254.21 71.02C253.818 71.42 253.622 71.976 253.622 72.688V76H252.77V69.688H253.586V70.852C253.818 70.468 254.138 70.172 254.546 69.964C254.962 69.748 255.442 69.64 255.986 69.64ZM264.215 75.616C264.055 75.76 263.855 75.872 263.615 75.952C263.383 76.024 263.139 76.06 262.883 76.06C262.291 76.06 261.835 75.9 261.515 75.58C261.195 75.26 261.035 74.808 261.035 74.224V70.408H259.907V69.688H261.035V68.308H261.887V69.688H263.807V70.408H261.887V74.176C261.887 74.552 261.979 74.84 262.163 75.04C262.355 75.232 262.627 75.328 262.979 75.328C263.155 75.328 263.323 75.3 263.483 75.244C263.651 75.188 263.795 75.108 263.915 75.004L264.215 75.616Z" fill="white"/>
</svg>
